%TF.GenerationSoftware,KiCad,Pcbnew,8.0.4*%
%TF.CreationDate,2024-12-12T17:07:26+08:00*%
%TF.ProjectId,esp01s-power-board,65737030-3173-42d7-906f-7765722d626f,rev?*%
%TF.SameCoordinates,Original*%
%TF.FileFunction,Copper,L2,Bot*%
%TF.FilePolarity,Positive*%
%FSLAX46Y46*%
G04 Gerber Fmt 4.6, Leading zero omitted, Abs format (unit mm)*
G04 Created by KiCad (PCBNEW 8.0.4) date 2024-12-12 17:07:26*
%MOMM*%
%LPD*%
G01*
G04 APERTURE LIST*
G04 Aperture macros list*
%AMRoundRect*
0 Rectangle with rounded corners*
0 $1 Rounding radius*
0 $2 $3 $4 $5 $6 $7 $8 $9 X,Y pos of 4 corners*
0 Add a 4 corners polygon primitive as box body*
4,1,4,$2,$3,$4,$5,$6,$7,$8,$9,$2,$3,0*
0 Add four circle primitives for the rounded corners*
1,1,$1+$1,$2,$3*
1,1,$1+$1,$4,$5*
1,1,$1+$1,$6,$7*
1,1,$1+$1,$8,$9*
0 Add four rect primitives between the rounded corners*
20,1,$1+$1,$2,$3,$4,$5,0*
20,1,$1+$1,$4,$5,$6,$7,0*
20,1,$1+$1,$6,$7,$8,$9,0*
20,1,$1+$1,$8,$9,$2,$3,0*%
G04 Aperture macros list end*
%TA.AperFunction,ComponentPad*%
%ADD10R,1.700000X1.700000*%
%TD*%
%TA.AperFunction,ComponentPad*%
%ADD11O,1.700000X1.700000*%
%TD*%
%TA.AperFunction,ComponentPad*%
%ADD12R,1.500000X1.500000*%
%TD*%
%TA.AperFunction,ComponentPad*%
%ADD13C,1.500000*%
%TD*%
%TA.AperFunction,ComponentPad*%
%ADD14RoundRect,0.250000X0.750000X-0.600000X0.750000X0.600000X-0.750000X0.600000X-0.750000X-0.600000X0*%
%TD*%
%TA.AperFunction,ComponentPad*%
%ADD15O,2.000000X1.700000*%
%TD*%
%TA.AperFunction,Conductor*%
%ADD16C,0.250000*%
%TD*%
G04 APERTURE END LIST*
D10*
%TO.P,J5,1,Pin_1*%
%TO.N,GND*%
X88900000Y-53340000D03*
D11*
%TO.P,J5,2,Pin_2*%
%TO.N,RX*%
X86360000Y-53340000D03*
%TO.P,J5,3,Pin_3*%
%TO.N,TX*%
X83820000Y-53340000D03*
%TO.P,J5,4,Pin_4*%
%TO.N,GPIO2*%
X81280000Y-53340000D03*
%TD*%
D12*
%TO.P,U1,1,GND*%
%TO.N,GND*%
X78740000Y-61407500D03*
D13*
%TO.P,U1,2,IO2*%
%TO.N,GPIO2*%
X78740000Y-63947500D03*
%TO.P,U1,3,IO0*%
%TO.N,unconnected-(U1-IO0-Pad3)*%
X78740000Y-66487500D03*
%TO.P,U1,4,RXD*%
%TO.N,RX*%
X78740000Y-69027500D03*
%TO.P,U1,5,TXD*%
%TO.N,TX*%
X76200000Y-61407500D03*
%TO.P,U1,6,EN*%
%TO.N,unconnected-(U1-EN-Pad6)*%
X76200000Y-63947500D03*
%TO.P,U1,7,~{RST}*%
%TO.N,unconnected-(U1-~{RST}-Pad7)*%
X76200000Y-66487500D03*
%TO.P,U1,8,VCC*%
%TO.N,+3V3*%
X76200000Y-69027500D03*
%TD*%
D14*
%TO.P,J4,1,Pin_1*%
%TO.N,GND*%
X57426115Y-66020000D03*
D15*
%TO.P,J4,2,Pin_2*%
%TO.N,+5V*%
X57426115Y-63520000D03*
%TD*%
D14*
%TO.P,J2,1,Pin_1*%
%TO.N,RX*%
X57336793Y-76313836D03*
D15*
%TO.P,J2,2,Pin_2*%
%TO.N,TX*%
X57336793Y-73813836D03*
%TD*%
D14*
%TO.P,J1,1,Pin_1*%
%TO.N,GND*%
X57426115Y-55726164D03*
D15*
%TO.P,J1,2,Pin_2*%
%TO.N,+12V*%
X57426115Y-53226164D03*
%TD*%
D16*
%TO.N,TX*%
X63793664Y-73813836D02*
X57336793Y-73813836D01*
X81280000Y-55880000D02*
X76200000Y-60960000D01*
X81280000Y-55880000D02*
X81280000Y-54515000D01*
X76200000Y-60960000D02*
X76200000Y-61407500D01*
X76200000Y-61407500D02*
X63793664Y-73813836D01*
X83820000Y-53340000D02*
X81280000Y-55880000D01*
%TO.N,RX*%
X78740000Y-69027500D02*
X80832500Y-69027500D01*
X78740000Y-68580000D02*
X71006164Y-76313836D01*
X71006164Y-76313836D02*
X57336793Y-76313836D01*
X80832500Y-69027500D02*
X86360000Y-63500000D01*
X86360000Y-63500000D02*
X86360000Y-53340000D01*
X78740000Y-69027500D02*
X78740000Y-68580000D01*
%TD*%
%TA.AperFunction,Conductor*%
%TO.N,GND*%
G36*
X85174855Y-54006546D02*
G01*
X85191575Y-54025842D01*
X85321501Y-54211396D01*
X85321506Y-54211402D01*
X85488597Y-54378493D01*
X85488603Y-54378498D01*
X85499888Y-54386400D01*
X85681624Y-54513653D01*
X85725248Y-54568228D01*
X85734500Y-54615226D01*
X85734500Y-63189547D01*
X85714815Y-63256586D01*
X85698181Y-63277228D01*
X80609729Y-68365681D01*
X80548406Y-68399166D01*
X80522048Y-68402000D01*
X79893150Y-68402000D01*
X79826111Y-68382315D01*
X79791575Y-68349123D01*
X79701599Y-68220624D01*
X79701596Y-68220621D01*
X79546877Y-68065902D01*
X79367639Y-67940398D01*
X79216414Y-67869881D01*
X79163977Y-67823710D01*
X79144825Y-67756516D01*
X79165041Y-67689635D01*
X79216414Y-67645118D01*
X79367639Y-67574602D01*
X79546877Y-67449098D01*
X79701598Y-67294377D01*
X79827102Y-67115139D01*
X79919575Y-66916830D01*
X79976207Y-66705477D01*
X79995277Y-66487500D01*
X79976207Y-66269523D01*
X79941548Y-66140175D01*
X79919577Y-66058177D01*
X79919576Y-66058176D01*
X79919575Y-66058170D01*
X79827102Y-65859862D01*
X79827100Y-65859859D01*
X79827099Y-65859857D01*
X79701599Y-65680624D01*
X79640876Y-65619901D01*
X79546877Y-65525902D01*
X79367639Y-65400398D01*
X79216414Y-65329881D01*
X79163977Y-65283710D01*
X79144825Y-65216516D01*
X79165041Y-65149635D01*
X79216414Y-65105118D01*
X79367639Y-65034602D01*
X79546877Y-64909098D01*
X79701598Y-64754377D01*
X79827102Y-64575139D01*
X79919575Y-64376830D01*
X79976207Y-64165477D01*
X79995277Y-63947500D01*
X79976207Y-63729523D01*
X79919575Y-63518170D01*
X79827102Y-63319862D01*
X79827100Y-63319859D01*
X79827099Y-63319857D01*
X79701599Y-63140624D01*
X79701596Y-63140621D01*
X79546877Y-62985902D01*
X79400022Y-62883073D01*
X79356399Y-62828498D01*
X79349207Y-62758999D01*
X79380729Y-62696645D01*
X79440959Y-62661231D01*
X79471148Y-62657500D01*
X79537828Y-62657500D01*
X79537844Y-62657499D01*
X79597372Y-62651098D01*
X79597379Y-62651096D01*
X79732086Y-62600854D01*
X79732093Y-62600850D01*
X79847187Y-62514690D01*
X79847190Y-62514687D01*
X79933350Y-62399593D01*
X79933354Y-62399586D01*
X79983596Y-62264879D01*
X79983598Y-62264872D01*
X79989999Y-62205344D01*
X79990000Y-62205327D01*
X79990000Y-61657500D01*
X79055686Y-61657500D01*
X79060080Y-61653106D01*
X79112741Y-61561894D01*
X79140000Y-61460161D01*
X79140000Y-61354839D01*
X79112741Y-61253106D01*
X79060080Y-61161894D01*
X79055686Y-61157500D01*
X79990000Y-61157500D01*
X79990000Y-60609672D01*
X79989999Y-60609655D01*
X79983598Y-60550127D01*
X79983596Y-60550120D01*
X79933354Y-60415413D01*
X79933350Y-60415406D01*
X79847190Y-60300312D01*
X79847187Y-60300309D01*
X79732093Y-60214149D01*
X79732086Y-60214145D01*
X79597379Y-60163903D01*
X79597372Y-60163901D01*
X79537844Y-60157500D01*
X78990000Y-60157500D01*
X78990000Y-61091814D01*
X78985606Y-61087420D01*
X78894394Y-61034759D01*
X78792661Y-61007500D01*
X78687339Y-61007500D01*
X78585606Y-61034759D01*
X78494394Y-61087420D01*
X78490000Y-61091814D01*
X78490000Y-60157500D01*
X78186450Y-60157500D01*
X78119411Y-60137815D01*
X78073656Y-60085011D01*
X78063712Y-60015853D01*
X78092737Y-59952297D01*
X78098755Y-59945833D01*
X81671664Y-56372925D01*
X81671671Y-56372919D01*
X81678731Y-56365859D01*
X81678733Y-56365858D01*
X81765858Y-56278733D01*
X81765858Y-56278731D01*
X81776062Y-56268528D01*
X81776066Y-56268523D01*
X83364353Y-54680235D01*
X83425674Y-54646752D01*
X83484125Y-54648143D01*
X83518780Y-54657428D01*
X83584592Y-54675063D01*
X83755319Y-54690000D01*
X83819999Y-54695659D01*
X83820000Y-54695659D01*
X83820001Y-54695659D01*
X83884681Y-54690000D01*
X84055408Y-54675063D01*
X84283663Y-54613903D01*
X84497830Y-54514035D01*
X84691401Y-54378495D01*
X84858495Y-54211401D01*
X84988425Y-54025842D01*
X85043002Y-53982217D01*
X85112500Y-53975023D01*
X85174855Y-54006546D01*
G37*
%TD.AperFunction*%
%TA.AperFunction,Conductor*%
G36*
X101543039Y-48279685D02*
G01*
X101588794Y-48332489D01*
X101600000Y-48384000D01*
X101600000Y-81156000D01*
X101580315Y-81223039D01*
X101527511Y-81268794D01*
X101476000Y-81280000D01*
X48384000Y-81280000D01*
X48316961Y-81260315D01*
X48271206Y-81207511D01*
X48260000Y-81156000D01*
X48260000Y-78618711D01*
X48949500Y-78618711D01*
X48949500Y-78861288D01*
X48981161Y-79101785D01*
X49043947Y-79336104D01*
X49136773Y-79560205D01*
X49136776Y-79560212D01*
X49258064Y-79770289D01*
X49258066Y-79770292D01*
X49258067Y-79770293D01*
X49405733Y-79962736D01*
X49405739Y-79962743D01*
X49577256Y-80134260D01*
X49577262Y-80134265D01*
X49769711Y-80281936D01*
X49979788Y-80403224D01*
X50203900Y-80496054D01*
X50438211Y-80558838D01*
X50618586Y-80582584D01*
X50678711Y-80590500D01*
X50678712Y-80590500D01*
X50921289Y-80590500D01*
X50969388Y-80584167D01*
X51161789Y-80558838D01*
X51396100Y-80496054D01*
X51620212Y-80403224D01*
X51830289Y-80281936D01*
X52022738Y-80134265D01*
X52194265Y-79962738D01*
X52341936Y-79770289D01*
X52463224Y-79560212D01*
X52556054Y-79336100D01*
X52618838Y-79101789D01*
X52650500Y-78861288D01*
X52650500Y-78618712D01*
X52650500Y-78618711D01*
X97209500Y-78618711D01*
X97209500Y-78861288D01*
X97241161Y-79101785D01*
X97303947Y-79336104D01*
X97396773Y-79560205D01*
X97396776Y-79560212D01*
X97518064Y-79770289D01*
X97518066Y-79770292D01*
X97518067Y-79770293D01*
X97665733Y-79962736D01*
X97665739Y-79962743D01*
X97837256Y-80134260D01*
X97837262Y-80134265D01*
X98029711Y-80281936D01*
X98239788Y-80403224D01*
X98463900Y-80496054D01*
X98698211Y-80558838D01*
X98878586Y-80582584D01*
X98938711Y-80590500D01*
X98938712Y-80590500D01*
X99181289Y-80590500D01*
X99229388Y-80584167D01*
X99421789Y-80558838D01*
X99656100Y-80496054D01*
X99880212Y-80403224D01*
X100090289Y-80281936D01*
X100282738Y-80134265D01*
X100454265Y-79962738D01*
X100601936Y-79770289D01*
X100723224Y-79560212D01*
X100816054Y-79336100D01*
X100878838Y-79101789D01*
X100910500Y-78861288D01*
X100910500Y-78618712D01*
X100878838Y-78378211D01*
X100816054Y-78143900D01*
X100723224Y-77919788D01*
X100601936Y-77709711D01*
X100454265Y-77517262D01*
X100454260Y-77517256D01*
X100282743Y-77345739D01*
X100282736Y-77345733D01*
X100090293Y-77198067D01*
X100090292Y-77198066D01*
X100090289Y-77198064D01*
X99880212Y-77076776D01*
X99880205Y-77076773D01*
X99656104Y-76983947D01*
X99489615Y-76939336D01*
X99421789Y-76921162D01*
X99421788Y-76921161D01*
X99421785Y-76921161D01*
X99181289Y-76889500D01*
X99181288Y-76889500D01*
X98938712Y-76889500D01*
X98938711Y-76889500D01*
X98698214Y-76921161D01*
X98463895Y-76983947D01*
X98239794Y-77076773D01*
X98239785Y-77076777D01*
X98029706Y-77198067D01*
X97837263Y-77345733D01*
X97837256Y-77345739D01*
X97665739Y-77517256D01*
X97665733Y-77517263D01*
X97518067Y-77709706D01*
X97396777Y-77919785D01*
X97396773Y-77919794D01*
X97303947Y-78143895D01*
X97241161Y-78378214D01*
X97209500Y-78618711D01*
X52650500Y-78618711D01*
X52618838Y-78378211D01*
X52556054Y-78143900D01*
X52463224Y-77919788D01*
X52341936Y-77709711D01*
X52194265Y-77517262D01*
X52194260Y-77517256D01*
X52022743Y-77345739D01*
X52022736Y-77345733D01*
X51830293Y-77198067D01*
X51830292Y-77198066D01*
X51830289Y-77198064D01*
X51620212Y-77076776D01*
X51620205Y-77076773D01*
X51396104Y-76983947D01*
X51229615Y-76939336D01*
X51161789Y-76921162D01*
X51161788Y-76921161D01*
X51161785Y-76921161D01*
X50921289Y-76889500D01*
X50921288Y-76889500D01*
X50678712Y-76889500D01*
X50678711Y-76889500D01*
X50438214Y-76921161D01*
X50203895Y-76983947D01*
X49979794Y-77076773D01*
X49979785Y-77076777D01*
X49769706Y-77198067D01*
X49577263Y-77345733D01*
X49577256Y-77345739D01*
X49405739Y-77517256D01*
X49405733Y-77517263D01*
X49258067Y-77709706D01*
X49136777Y-77919785D01*
X49136773Y-77919794D01*
X49043947Y-78143895D01*
X48981161Y-78378214D01*
X48949500Y-78618711D01*
X48260000Y-78618711D01*
X48260000Y-73707549D01*
X55836293Y-73707549D01*
X55836293Y-73920123D01*
X55869547Y-74130079D01*
X55924658Y-74299693D01*
X55935237Y-74332250D01*
X56031744Y-74521656D01*
X56156683Y-74693622D01*
X56295498Y-74832437D01*
X56328983Y-74893760D01*
X56323999Y-74963452D01*
X56282127Y-75019385D01*
X56272914Y-75025657D01*
X56118135Y-75121125D01*
X55994082Y-75245178D01*
X55901980Y-75394499D01*
X55901979Y-75394502D01*
X55846794Y-75561039D01*
X55846794Y-75561040D01*
X55846793Y-75561040D01*
X55836293Y-75663819D01*
X55836293Y-76963837D01*
X55836294Y-76963854D01*
X55846793Y-77066632D01*
X55846794Y-77066635D01*
X55850155Y-77076777D01*
X55901979Y-77233170D01*
X55994081Y-77382492D01*
X56118137Y-77506548D01*
X56267459Y-77598650D01*
X56433996Y-77653835D01*
X56536784Y-77664336D01*
X58136801Y-77664335D01*
X58239590Y-77653835D01*
X58406127Y-77598650D01*
X58555449Y-77506548D01*
X58679505Y-77382492D01*
X58771607Y-77233170D01*
X58826792Y-77066633D01*
X58828416Y-77050734D01*
X58854811Y-76986043D01*
X58911991Y-76945891D01*
X58951774Y-76939336D01*
X71067771Y-76939336D01*
X71128193Y-76927317D01*
X71188616Y-76915299D01*
X71188619Y-76915297D01*
X71188622Y-76915297D01*
X71221951Y-76901490D01*
X71221950Y-76901490D01*
X71221956Y-76901488D01*
X71302450Y-76868148D01*
X71353673Y-76833920D01*
X71404897Y-76799694D01*
X71492022Y-76712569D01*
X71492023Y-76712567D01*
X71499089Y-76705501D01*
X71499092Y-76705497D01*
X78035709Y-70168879D01*
X78097030Y-70135396D01*
X78166722Y-70140380D01*
X78175775Y-70144172D01*
X78310670Y-70207075D01*
X78522023Y-70263707D01*
X78696439Y-70278966D01*
X78739998Y-70282777D01*
X78740000Y-70282777D01*
X78740002Y-70282777D01*
X78768254Y-70280305D01*
X78957977Y-70263707D01*
X79169330Y-70207075D01*
X79367639Y-70114602D01*
X79546877Y-69989098D01*
X79701598Y-69834377D01*
X79791575Y-69705875D01*
X79846151Y-69662252D01*
X79893149Y-69653000D01*
X80894107Y-69653000D01*
X80954529Y-69640981D01*
X81014952Y-69628963D01*
X81014955Y-69628961D01*
X81014958Y-69628961D01*
X81048287Y-69615154D01*
X81048286Y-69615154D01*
X81048292Y-69615152D01*
X81128786Y-69581812D01*
X81180009Y-69547584D01*
X81231233Y-69513358D01*
X81318358Y-69426233D01*
X81318358Y-69426231D01*
X81328566Y-69416024D01*
X81328567Y-69416021D01*
X86845857Y-63898734D01*
X86887613Y-63836243D01*
X86914311Y-63796286D01*
X86961463Y-63682452D01*
X86985500Y-63561606D01*
X86985500Y-54615226D01*
X87005185Y-54548187D01*
X87038374Y-54513654D01*
X87231401Y-54378495D01*
X87353717Y-54256178D01*
X87415036Y-54222696D01*
X87484728Y-54227680D01*
X87540662Y-54269551D01*
X87557577Y-54300528D01*
X87606646Y-54432088D01*
X87606649Y-54432093D01*
X87692809Y-54547187D01*
X87692812Y-54547190D01*
X87807906Y-54633350D01*
X87807913Y-54633354D01*
X87942620Y-54683596D01*
X87942627Y-54683598D01*
X88002155Y-54689999D01*
X88002172Y-54690000D01*
X88650000Y-54690000D01*
X88650000Y-53773012D01*
X88707007Y-53805925D01*
X88834174Y-53840000D01*
X88965826Y-53840000D01*
X89092993Y-53805925D01*
X89150000Y-53773012D01*
X89150000Y-54690000D01*
X89797828Y-54690000D01*
X89797844Y-54689999D01*
X89857372Y-54683598D01*
X89857379Y-54683596D01*
X89992086Y-54633354D01*
X89992093Y-54633350D01*
X90107187Y-54547190D01*
X90107190Y-54547187D01*
X90193350Y-54432093D01*
X90193354Y-54432086D01*
X90243596Y-54297379D01*
X90243598Y-54297372D01*
X90249999Y-54237844D01*
X90250000Y-54237827D01*
X90250000Y-53590000D01*
X89333012Y-53590000D01*
X89365925Y-53532993D01*
X89400000Y-53405826D01*
X89400000Y-53274174D01*
X89365925Y-53147007D01*
X89333012Y-53090000D01*
X90250000Y-53090000D01*
X90250000Y-52442172D01*
X90249999Y-52442155D01*
X90243598Y-52382627D01*
X90243596Y-52382620D01*
X90193354Y-52247913D01*
X90193350Y-52247906D01*
X90107190Y-52132812D01*
X90107187Y-52132809D01*
X89992093Y-52046649D01*
X89992086Y-52046645D01*
X89857379Y-51996403D01*
X89857372Y-51996401D01*
X89797844Y-51990000D01*
X89150000Y-51990000D01*
X89150000Y-52906988D01*
X89092993Y-52874075D01*
X88965826Y-52840000D01*
X88834174Y-52840000D01*
X88707007Y-52874075D01*
X88650000Y-52906988D01*
X88650000Y-51990000D01*
X88002155Y-51990000D01*
X87942627Y-51996401D01*
X87942620Y-51996403D01*
X87807913Y-52046645D01*
X87807906Y-52046649D01*
X87692812Y-52132809D01*
X87692809Y-52132812D01*
X87606649Y-52247906D01*
X87606645Y-52247913D01*
X87557578Y-52379470D01*
X87515707Y-52435404D01*
X87450242Y-52459821D01*
X87381969Y-52444969D01*
X87353715Y-52423819D01*
X87309366Y-52379470D01*
X87231401Y-52301505D01*
X87231397Y-52301502D01*
X87231396Y-52301501D01*
X87037834Y-52165967D01*
X87037830Y-52165965D01*
X86966727Y-52132809D01*
X86823663Y-52066097D01*
X86823659Y-52066096D01*
X86823655Y-52066094D01*
X86595413Y-52004938D01*
X86595403Y-52004936D01*
X86360001Y-51984341D01*
X86359999Y-51984341D01*
X86124596Y-52004936D01*
X86124586Y-52004938D01*
X85896344Y-52066094D01*
X85896335Y-52066098D01*
X85682171Y-52165964D01*
X85682169Y-52165965D01*
X85488597Y-52301505D01*
X85321505Y-52468597D01*
X85191575Y-52654158D01*
X85136998Y-52697783D01*
X85067500Y-52704977D01*
X85005145Y-52673454D01*
X84988425Y-52654158D01*
X84858494Y-52468597D01*
X84691402Y-52301506D01*
X84691395Y-52301501D01*
X84497834Y-52165967D01*
X84497830Y-52165965D01*
X84426727Y-52132809D01*
X84283663Y-52066097D01*
X84283659Y-52066096D01*
X84283655Y-52066094D01*
X84055413Y-52004938D01*
X84055403Y-52004936D01*
X83820001Y-51984341D01*
X83819999Y-51984341D01*
X83584596Y-52004936D01*
X83584586Y-52004938D01*
X83356344Y-52066094D01*
X83356335Y-52066098D01*
X83142171Y-52165964D01*
X83142169Y-52165965D01*
X82948597Y-52301505D01*
X82781505Y-52468597D01*
X82651575Y-52654158D01*
X82596998Y-52697783D01*
X82527500Y-52704977D01*
X82465145Y-52673454D01*
X82448425Y-52654158D01*
X82318494Y-52468597D01*
X82151402Y-52301506D01*
X82151395Y-52301501D01*
X81957834Y-52165967D01*
X81957830Y-52165965D01*
X81886727Y-52132809D01*
X81743663Y-52066097D01*
X81743659Y-52066096D01*
X81743655Y-52066094D01*
X81515413Y-52004938D01*
X81515403Y-52004936D01*
X81280001Y-51984341D01*
X81279999Y-51984341D01*
X81044596Y-52004936D01*
X81044586Y-52004938D01*
X80816344Y-52066094D01*
X80816335Y-52066098D01*
X80602171Y-52165964D01*
X80602169Y-52165965D01*
X80408597Y-52301505D01*
X80241505Y-52468597D01*
X80105965Y-52662169D01*
X80105964Y-52662171D01*
X80006098Y-52876335D01*
X80006094Y-52876344D01*
X79944938Y-53104586D01*
X79944936Y-53104596D01*
X79924341Y-53339999D01*
X79924341Y-53340000D01*
X79944936Y-53575403D01*
X79944938Y-53575413D01*
X80006094Y-53803655D01*
X80006096Y-53803659D01*
X80006097Y-53803663D01*
X80066865Y-53933980D01*
X80105965Y-54017830D01*
X80105967Y-54017834D01*
X80214281Y-54172521D01*
X80241501Y-54211396D01*
X80241506Y-54211402D01*
X80408597Y-54378493D01*
X80408603Y-54378498D01*
X80419888Y-54386400D01*
X80601624Y-54513653D01*
X80645248Y-54568228D01*
X80654500Y-54615226D01*
X80654500Y-55569547D01*
X80634815Y-55636586D01*
X80618181Y-55657228D01*
X76147735Y-60127673D01*
X76086412Y-60161158D01*
X76070862Y-60163520D01*
X75982027Y-60171292D01*
X75982017Y-60171294D01*
X75770677Y-60227922D01*
X75770668Y-60227926D01*
X75572361Y-60320398D01*
X75572357Y-60320400D01*
X75393121Y-60445902D01*
X75238402Y-60600621D01*
X75112900Y-60779857D01*
X75112898Y-60779861D01*
X75020426Y-60978168D01*
X75020422Y-60978177D01*
X74963793Y-61189520D01*
X74963793Y-61189523D01*
X74944723Y-61407500D01*
X74963793Y-61625477D01*
X74971196Y-61653106D01*
X74973505Y-61661721D01*
X74971842Y-61731571D01*
X74941411Y-61781496D01*
X63570893Y-73152017D01*
X63509570Y-73185502D01*
X63483212Y-73188336D01*
X58759774Y-73188336D01*
X58692735Y-73168651D01*
X58649290Y-73120633D01*
X58641842Y-73106016D01*
X58516902Y-72934049D01*
X58366579Y-72783726D01*
X58194613Y-72658787D01*
X58005207Y-72562280D01*
X58005206Y-72562279D01*
X58005205Y-72562279D01*
X57803036Y-72496590D01*
X57803034Y-72496589D01*
X57803033Y-72496589D01*
X57641750Y-72471044D01*
X57593080Y-72463336D01*
X57080506Y-72463336D01*
X57031835Y-72471044D01*
X56870553Y-72496589D01*
X56668378Y-72562280D01*
X56478972Y-72658787D01*
X56307006Y-72783726D01*
X56156683Y-72934049D01*
X56031744Y-73106015D01*
X55935237Y-73295421D01*
X55869546Y-73497596D01*
X55836293Y-73707549D01*
X48260000Y-73707549D01*
X48260000Y-63413713D01*
X55925615Y-63413713D01*
X55925615Y-63626286D01*
X55957680Y-63828740D01*
X55958869Y-63836243D01*
X55995019Y-63947502D01*
X56024559Y-64038414D01*
X56121066Y-64227820D01*
X56246005Y-64399786D01*
X56385183Y-64538964D01*
X56418668Y-64600287D01*
X56413684Y-64669979D01*
X56371812Y-64725912D01*
X56362599Y-64732183D01*
X56207774Y-64827680D01*
X56207770Y-64827683D01*
X56083799Y-64951654D01*
X55991758Y-65100875D01*
X55991756Y-65100880D01*
X55936609Y-65267302D01*
X55936608Y-65267309D01*
X55926115Y-65370013D01*
X55926115Y-65770000D01*
X56993103Y-65770000D01*
X56960190Y-65827007D01*
X56926115Y-65954174D01*
X56926115Y-66085826D01*
X56960190Y-66212993D01*
X56993103Y-66270000D01*
X55926116Y-66270000D01*
X55926116Y-66669986D01*
X55936609Y-66772697D01*
X55991756Y-66939119D01*
X55991758Y-66939124D01*
X56083799Y-67088345D01*
X56207769Y-67212315D01*
X56356990Y-67304356D01*
X56356995Y-67304358D01*
X56523417Y-67359505D01*
X56523424Y-67359506D01*
X56626134Y-67369999D01*
X57176114Y-67369999D01*
X57176115Y-67369998D01*
X57176115Y-66453012D01*
X57233122Y-66485925D01*
X57360289Y-66520000D01*
X57491941Y-66520000D01*
X57619108Y-66485925D01*
X57676115Y-66453012D01*
X57676115Y-67369999D01*
X58226087Y-67369999D01*
X58226101Y-67369998D01*
X58328812Y-67359505D01*
X58495234Y-67304358D01*
X58495239Y-67304356D01*
X58644460Y-67212315D01*
X58768430Y-67088345D01*
X58860471Y-66939124D01*
X58860473Y-66939119D01*
X58915620Y-66772697D01*
X58915621Y-66772690D01*
X58926114Y-66669986D01*
X58926115Y-66669973D01*
X58926115Y-66270000D01*
X57859127Y-66270000D01*
X57892040Y-66212993D01*
X57926115Y-66085826D01*
X57926115Y-65954174D01*
X57892040Y-65827007D01*
X57859127Y-65770000D01*
X58926114Y-65770000D01*
X58926114Y-65370028D01*
X58926113Y-65370013D01*
X58915620Y-65267302D01*
X58860473Y-65100880D01*
X58860471Y-65100875D01*
X58768430Y-64951654D01*
X58644460Y-64827684D01*
X58489630Y-64732184D01*
X58442906Y-64680236D01*
X58431683Y-64611273D01*
X58459527Y-64547191D01*
X58467024Y-64538986D01*
X58606219Y-64399792D01*
X58731166Y-64227816D01*
X58827672Y-64038412D01*
X58893361Y-63836243D01*
X58926615Y-63626287D01*
X58926615Y-63413713D01*
X58893361Y-63203757D01*
X58827672Y-63001588D01*
X58731166Y-62812184D01*
X58731164Y-62812181D01*
X58731163Y-62812179D01*
X58606224Y-62640213D01*
X58455901Y-62489890D01*
X58283935Y-62364951D01*
X58094529Y-62268444D01*
X58094528Y-62268443D01*
X58094527Y-62268443D01*
X57892358Y-62202754D01*
X57892356Y-62202753D01*
X57892355Y-62202753D01*
X57731072Y-62177208D01*
X57682402Y-62169500D01*
X57169828Y-62169500D01*
X57121157Y-62177208D01*
X56959875Y-62202753D01*
X56757700Y-62268444D01*
X56568294Y-62364951D01*
X56396328Y-62489890D01*
X56246005Y-62640213D01*
X56121066Y-62812179D01*
X56024559Y-63001585D01*
X55958868Y-63203760D01*
X55925615Y-63413713D01*
X48260000Y-63413713D01*
X48260000Y-53119877D01*
X55925615Y-53119877D01*
X55925615Y-53332451D01*
X55958869Y-53542407D01*
X56023103Y-53740099D01*
X56024559Y-53744578D01*
X56121066Y-53933984D01*
X56246005Y-54105950D01*
X56385183Y-54245128D01*
X56418668Y-54306451D01*
X56413684Y-54376143D01*
X56371812Y-54432076D01*
X56362599Y-54438347D01*
X56207774Y-54533844D01*
X56207770Y-54533847D01*
X56083799Y-54657818D01*
X55991758Y-54807039D01*
X55991756Y-54807044D01*
X55936609Y-54973466D01*
X55936608Y-54973473D01*
X55926115Y-55076177D01*
X55926115Y-55476164D01*
X56993103Y-55476164D01*
X56960190Y-55533171D01*
X56926115Y-55660338D01*
X56926115Y-55791990D01*
X56960190Y-55919157D01*
X56993103Y-55976164D01*
X55926116Y-55976164D01*
X55926116Y-56376150D01*
X55936609Y-56478861D01*
X55991756Y-56645283D01*
X55991758Y-56645288D01*
X56083799Y-56794509D01*
X56207769Y-56918479D01*
X56356990Y-57010520D01*
X56356995Y-57010522D01*
X56523417Y-57065669D01*
X56523424Y-57065670D01*
X56626134Y-57076163D01*
X57176114Y-57076163D01*
X57176115Y-57076162D01*
X57176115Y-56159176D01*
X57233122Y-56192089D01*
X57360289Y-56226164D01*
X57491941Y-56226164D01*
X57619108Y-56192089D01*
X57676115Y-56159176D01*
X57676115Y-57076163D01*
X58226087Y-57076163D01*
X58226101Y-57076162D01*
X58328812Y-57065669D01*
X58495234Y-57010522D01*
X58495239Y-57010520D01*
X58644460Y-56918479D01*
X58768430Y-56794509D01*
X58860471Y-56645288D01*
X58860473Y-56645283D01*
X58915620Y-56478861D01*
X58915621Y-56478854D01*
X58926114Y-56376150D01*
X58926115Y-56376137D01*
X58926115Y-55976164D01*
X57859127Y-55976164D01*
X57892040Y-55919157D01*
X57926115Y-55791990D01*
X57926115Y-55660338D01*
X57892040Y-55533171D01*
X57859127Y-55476164D01*
X58926114Y-55476164D01*
X58926114Y-55076192D01*
X58926113Y-55076177D01*
X58915620Y-54973466D01*
X58860473Y-54807044D01*
X58860471Y-54807039D01*
X58768430Y-54657818D01*
X58644460Y-54533848D01*
X58489630Y-54438348D01*
X58442906Y-54386400D01*
X58431683Y-54317437D01*
X58459527Y-54253355D01*
X58467024Y-54245150D01*
X58606219Y-54105956D01*
X58731166Y-53933980D01*
X58827672Y-53744576D01*
X58893361Y-53542407D01*
X58926615Y-53332451D01*
X58926615Y-53119877D01*
X58893361Y-52909921D01*
X58827672Y-52707752D01*
X58731166Y-52518348D01*
X58731164Y-52518345D01*
X58731163Y-52518343D01*
X58606224Y-52346377D01*
X58455901Y-52196054D01*
X58283935Y-52071115D01*
X58094529Y-51974608D01*
X58094528Y-51974607D01*
X58094527Y-51974607D01*
X57892358Y-51908918D01*
X57892356Y-51908917D01*
X57892355Y-51908917D01*
X57731072Y-51883372D01*
X57682402Y-51875664D01*
X57169828Y-51875664D01*
X57121157Y-51883372D01*
X56959875Y-51908917D01*
X56757700Y-51974608D01*
X56568294Y-52071115D01*
X56396328Y-52196054D01*
X56246005Y-52346377D01*
X56121066Y-52518343D01*
X56024559Y-52707749D01*
X55958868Y-52909924D01*
X55939376Y-53032993D01*
X55925615Y-53119877D01*
X48260000Y-53119877D01*
X48260000Y-50678711D01*
X48949500Y-50678711D01*
X48949500Y-50921288D01*
X48981161Y-51161785D01*
X49043947Y-51396104D01*
X49136773Y-51620205D01*
X49136776Y-51620212D01*
X49258064Y-51830289D01*
X49258066Y-51830292D01*
X49258067Y-51830293D01*
X49405733Y-52022736D01*
X49405739Y-52022743D01*
X49577256Y-52194260D01*
X49577263Y-52194266D01*
X49690321Y-52281018D01*
X49769711Y-52341936D01*
X49979788Y-52463224D01*
X50203900Y-52556054D01*
X50438211Y-52618838D01*
X50618586Y-52642584D01*
X50678711Y-52650500D01*
X50678712Y-52650500D01*
X50921289Y-52650500D01*
X50969388Y-52644167D01*
X51161789Y-52618838D01*
X51396100Y-52556054D01*
X51620212Y-52463224D01*
X51830289Y-52341936D01*
X52022738Y-52194265D01*
X52194265Y-52022738D01*
X52341936Y-51830289D01*
X52463224Y-51620212D01*
X52556054Y-51396100D01*
X52618838Y-51161789D01*
X52650500Y-50921288D01*
X52650500Y-50678712D01*
X52650500Y-50678711D01*
X97209500Y-50678711D01*
X97209500Y-50921288D01*
X97241161Y-51161785D01*
X97303947Y-51396104D01*
X97396773Y-51620205D01*
X97396776Y-51620212D01*
X97518064Y-51830289D01*
X97518066Y-51830292D01*
X97518067Y-51830293D01*
X97665733Y-52022736D01*
X97665739Y-52022743D01*
X97837256Y-52194260D01*
X97837263Y-52194266D01*
X97950321Y-52281018D01*
X98029711Y-52341936D01*
X98239788Y-52463224D01*
X98463900Y-52556054D01*
X98698211Y-52618838D01*
X98878586Y-52642584D01*
X98938711Y-52650500D01*
X98938712Y-52650500D01*
X99181289Y-52650500D01*
X99229388Y-52644167D01*
X99421789Y-52618838D01*
X99656100Y-52556054D01*
X99880212Y-52463224D01*
X100090289Y-52341936D01*
X100282738Y-52194265D01*
X100454265Y-52022738D01*
X100601936Y-51830289D01*
X100723224Y-51620212D01*
X100816054Y-51396100D01*
X100878838Y-51161789D01*
X100910500Y-50921288D01*
X100910500Y-50678712D01*
X100878838Y-50438211D01*
X100816054Y-50203900D01*
X100723224Y-49979788D01*
X100601936Y-49769711D01*
X100454265Y-49577262D01*
X100454260Y-49577256D01*
X100282743Y-49405739D01*
X100282736Y-49405733D01*
X100090293Y-49258067D01*
X100090292Y-49258066D01*
X100090289Y-49258064D01*
X99880212Y-49136776D01*
X99880205Y-49136773D01*
X99656104Y-49043947D01*
X99421785Y-48981161D01*
X99181289Y-48949500D01*
X99181288Y-48949500D01*
X98938712Y-48949500D01*
X98938711Y-48949500D01*
X98698214Y-48981161D01*
X98463895Y-49043947D01*
X98239794Y-49136773D01*
X98239785Y-49136777D01*
X98029706Y-49258067D01*
X97837263Y-49405733D01*
X97837256Y-49405739D01*
X97665739Y-49577256D01*
X97665733Y-49577263D01*
X97518067Y-49769706D01*
X97396777Y-49979785D01*
X97396773Y-49979794D01*
X97303947Y-50203895D01*
X97241161Y-50438214D01*
X97209500Y-50678711D01*
X52650500Y-50678711D01*
X52618838Y-50438211D01*
X52556054Y-50203900D01*
X52463224Y-49979788D01*
X52341936Y-49769711D01*
X52194265Y-49577262D01*
X52194260Y-49577256D01*
X52022743Y-49405739D01*
X52022736Y-49405733D01*
X51830293Y-49258067D01*
X51830292Y-49258066D01*
X51830289Y-49258064D01*
X51620212Y-49136776D01*
X51620205Y-49136773D01*
X51396104Y-49043947D01*
X51161785Y-48981161D01*
X50921289Y-48949500D01*
X50921288Y-48949500D01*
X50678712Y-48949500D01*
X50678711Y-48949500D01*
X50438214Y-48981161D01*
X50203895Y-49043947D01*
X49979794Y-49136773D01*
X49979785Y-49136777D01*
X49769706Y-49258067D01*
X49577263Y-49405733D01*
X49577256Y-49405739D01*
X49405739Y-49577256D01*
X49405733Y-49577263D01*
X49258067Y-49769706D01*
X49136777Y-49979785D01*
X49136773Y-49979794D01*
X49043947Y-50203895D01*
X48981161Y-50438214D01*
X48949500Y-50678711D01*
X48260000Y-50678711D01*
X48260000Y-48384000D01*
X48279685Y-48316961D01*
X48332489Y-48271206D01*
X48384000Y-48260000D01*
X101476000Y-48260000D01*
X101543039Y-48279685D01*
G37*
%TD.AperFunction*%
%TD*%
M02*
