%TF.GenerationSoftware,KiCad,Pcbnew,8.0.4*%
%TF.CreationDate,2024-12-12T17:07:26+08:00*%
%TF.ProjectId,esp01s-power-board,65737030-3173-42d7-906f-7765722d626f,rev?*%
%TF.SameCoordinates,Original*%
%TF.FileFunction,Copper,L1,Top*%
%TF.FilePolarity,Positive*%
%FSLAX46Y46*%
G04 Gerber Fmt 4.6, Leading zero omitted, Abs format (unit mm)*
G04 Created by KiCad (PCBNEW 8.0.4) date 2024-12-12 17:07:26*
%MOMM*%
%LPD*%
G01*
G04 APERTURE LIST*
G04 Aperture macros list*
%AMRoundRect*
0 Rectangle with rounded corners*
0 $1 Rounding radius*
0 $2 $3 $4 $5 $6 $7 $8 $9 X,Y pos of 4 corners*
0 Add a 4 corners polygon primitive as box body*
4,1,4,$2,$3,$4,$5,$6,$7,$8,$9,$2,$3,0*
0 Add four circle primitives for the rounded corners*
1,1,$1+$1,$2,$3*
1,1,$1+$1,$4,$5*
1,1,$1+$1,$6,$7*
1,1,$1+$1,$8,$9*
0 Add four rect primitives between the rounded corners*
20,1,$1+$1,$2,$3,$4,$5,0*
20,1,$1+$1,$4,$5,$6,$7,0*
20,1,$1+$1,$6,$7,$8,$9,0*
20,1,$1+$1,$8,$9,$2,$3,0*%
G04 Aperture macros list end*
%TA.AperFunction,SMDPad,CuDef*%
%ADD10R,1.500000X2.000000*%
%TD*%
%TA.AperFunction,SMDPad,CuDef*%
%ADD11R,3.800000X2.000000*%
%TD*%
%TA.AperFunction,ComponentPad*%
%ADD12R,1.700000X1.700000*%
%TD*%
%TA.AperFunction,ComponentPad*%
%ADD13O,1.700000X1.700000*%
%TD*%
%TA.AperFunction,ComponentPad*%
%ADD14R,1.500000X1.500000*%
%TD*%
%TA.AperFunction,ComponentPad*%
%ADD15C,1.500000*%
%TD*%
%TA.AperFunction,SMDPad,CuDef*%
%ADD16RoundRect,0.225000X0.250000X-0.225000X0.250000X0.225000X-0.250000X0.225000X-0.250000X-0.225000X0*%
%TD*%
%TA.AperFunction,ComponentPad*%
%ADD17RoundRect,0.250000X0.750000X-0.600000X0.750000X0.600000X-0.750000X0.600000X-0.750000X-0.600000X0*%
%TD*%
%TA.AperFunction,ComponentPad*%
%ADD18O,2.000000X1.700000*%
%TD*%
%TA.AperFunction,SMDPad,CuDef*%
%ADD19RoundRect,0.250000X-0.925000X0.412500X-0.925000X-0.412500X0.925000X-0.412500X0.925000X0.412500X0*%
%TD*%
%TA.AperFunction,SMDPad,CuDef*%
%ADD20RoundRect,0.250000X0.925000X-0.412500X0.925000X0.412500X-0.925000X0.412500X-0.925000X-0.412500X0*%
%TD*%
%TA.AperFunction,SMDPad,CuDef*%
%ADD21RoundRect,0.225000X-0.225000X-0.250000X0.225000X-0.250000X0.225000X0.250000X-0.225000X0.250000X0*%
%TD*%
%TA.AperFunction,SMDPad,CuDef*%
%ADD22RoundRect,0.225000X-0.250000X0.225000X-0.250000X-0.225000X0.250000X-0.225000X0.250000X0.225000X0*%
%TD*%
%TA.AperFunction,SMDPad,CuDef*%
%ADD23RoundRect,0.225000X0.225000X0.250000X-0.225000X0.250000X-0.225000X-0.250000X0.225000X-0.250000X0*%
%TD*%
%TA.AperFunction,Conductor*%
%ADD24C,0.250000*%
%TD*%
%TA.AperFunction,Conductor*%
%ADD25C,0.500000*%
%TD*%
%TA.AperFunction,Conductor*%
%ADD26C,1.000000*%
%TD*%
%TA.AperFunction,Conductor*%
%ADD27C,0.750000*%
%TD*%
G04 APERTURE END LIST*
D10*
%TO.P,U2,1,GND*%
%TO.N,GND*%
X68340000Y-69194935D03*
%TO.P,U2,2,VO*%
%TO.N,+3V3*%
X66040000Y-69194935D03*
D11*
X66040000Y-75494935D03*
D10*
%TO.P,U2,3,VI*%
%TO.N,+5V*%
X63740000Y-69194935D03*
%TD*%
%TO.P,U3,1,GND*%
%TO.N,GND*%
X68340000Y-54045063D03*
%TO.P,U3,2,VO*%
%TO.N,+5V*%
X66040000Y-54045063D03*
D11*
X66040000Y-60345063D03*
D10*
%TO.P,U3,3,VI*%
%TO.N,+12V*%
X63740000Y-54045063D03*
%TD*%
D12*
%TO.P,J5,1,Pin_1*%
%TO.N,GND*%
X88900000Y-53340000D03*
D13*
%TO.P,J5,2,Pin_2*%
%TO.N,RX*%
X86360000Y-53340000D03*
%TO.P,J5,3,Pin_3*%
%TO.N,TX*%
X83820000Y-53340000D03*
%TO.P,J5,4,Pin_4*%
%TO.N,GPIO2*%
X81280000Y-53340000D03*
%TD*%
D14*
%TO.P,U1,1,GND*%
%TO.N,GND*%
X78740000Y-61407500D03*
D15*
%TO.P,U1,2,IO2*%
%TO.N,GPIO2*%
X78740000Y-63947500D03*
%TO.P,U1,3,IO0*%
%TO.N,unconnected-(U1-IO0-Pad3)*%
X78740000Y-66487500D03*
%TO.P,U1,4,RXD*%
%TO.N,RX*%
X78740000Y-69027500D03*
%TO.P,U1,5,TXD*%
%TO.N,TX*%
X76200000Y-61407500D03*
%TO.P,U1,6,EN*%
%TO.N,unconnected-(U1-EN-Pad6)*%
X76200000Y-63947500D03*
%TO.P,U1,7,~{RST}*%
%TO.N,unconnected-(U1-~{RST}-Pad7)*%
X76200000Y-66487500D03*
%TO.P,U1,8,VCC*%
%TO.N,+3V3*%
X76200000Y-69027500D03*
%TD*%
D16*
%TO.P,C2,1*%
%TO.N,+5V*%
X63500000Y-65544999D03*
%TO.P,C2,2*%
%TO.N,GND*%
X63500000Y-63994999D03*
%TD*%
D17*
%TO.P,J4,1,Pin_1*%
%TO.N,GND*%
X57426115Y-66020000D03*
D18*
%TO.P,J4,2,Pin_2*%
%TO.N,+5V*%
X57426115Y-63520000D03*
%TD*%
D19*
%TO.P,C1,1*%
%TO.N,+5V*%
X72128525Y-66933200D03*
%TO.P,C1,2*%
%TO.N,GND*%
X72128525Y-70008200D03*
%TD*%
D20*
%TO.P,C4,1*%
%TO.N,+3V3*%
X72122500Y-77499601D03*
%TO.P,C4,2*%
%TO.N,GND*%
X72122500Y-74424601D03*
%TD*%
%TO.P,C8,1*%
%TO.N,+5V*%
X72210100Y-62561800D03*
%TO.P,C8,2*%
%TO.N,GND*%
X72210100Y-59486800D03*
%TD*%
D21*
%TO.P,C6,1*%
%TO.N,+12V*%
X65265000Y-50620127D03*
%TO.P,C6,2*%
%TO.N,GND*%
X66815000Y-50620127D03*
%TD*%
D22*
%TO.P,C7,1*%
%TO.N,+5V*%
X68580000Y-63994999D03*
%TO.P,C7,2*%
%TO.N,GND*%
X68580000Y-65544999D03*
%TD*%
D17*
%TO.P,J2,1,Pin_1*%
%TO.N,RX*%
X57336793Y-76313836D03*
D18*
%TO.P,J2,2,Pin_2*%
%TO.N,TX*%
X57336793Y-73813836D03*
%TD*%
D23*
%TO.P,C3,1*%
%TO.N,+3V3*%
X66810177Y-78919873D03*
%TO.P,C3,2*%
%TO.N,GND*%
X65260177Y-78919873D03*
%TD*%
D19*
%TO.P,C5,1*%
%TO.N,+12V*%
X72128525Y-52085400D03*
%TO.P,C5,2*%
%TO.N,GND*%
X72128525Y-55160400D03*
%TD*%
D17*
%TO.P,J1,1,Pin_1*%
%TO.N,GND*%
X57426115Y-55726164D03*
D18*
%TO.P,J1,2,Pin_2*%
%TO.N,+12V*%
X57426115Y-53226164D03*
%TD*%
D24*
%TO.N,TX*%
X57341748Y-73660000D02*
X57336793Y-73655045D01*
%TO.N,GPIO2*%
X81280000Y-53340000D02*
X81280000Y-61407500D01*
X81280000Y-61407500D02*
X78740000Y-63947500D01*
%TO.N,RX*%
X57341748Y-76160000D02*
X57336793Y-76155045D01*
D25*
%TO.N,+12V*%
X65265000Y-50620127D02*
X63740000Y-52145127D01*
X72128525Y-52085400D02*
X70843125Y-50800000D01*
X66190000Y-51545127D02*
X65265000Y-50620127D01*
X68580000Y-50800000D02*
X67834873Y-51545127D01*
X67834873Y-51545127D02*
X66190000Y-51545127D01*
X63740000Y-52145127D02*
X63740000Y-54045063D01*
D26*
X57619618Y-53067373D02*
X57426115Y-53067373D01*
D25*
X58245014Y-54045063D02*
X57426115Y-53226164D01*
X70843125Y-50800000D02*
X68580000Y-50800000D01*
X63740000Y-54045063D02*
X58245014Y-54045063D01*
%TO.N,+3V3*%
X66040000Y-75494935D02*
X70117834Y-75494935D01*
X74963120Y-79976880D02*
X76200000Y-78740000D01*
X72122500Y-77499601D02*
X67280399Y-77499601D01*
X66810177Y-77969823D02*
X66810177Y-78919873D01*
X66810177Y-78919873D02*
X67867184Y-79976880D01*
X66040000Y-69194935D02*
X66040000Y-75494935D01*
X76200000Y-78740000D02*
X76200000Y-69027500D01*
X67867184Y-79976880D02*
X74963120Y-79976880D01*
X70117834Y-75494935D02*
X72122500Y-77499601D01*
X67280399Y-77499601D02*
X66810177Y-77969823D01*
%TO.N,+5V*%
X68580000Y-63994999D02*
X69190324Y-63994999D01*
X64888201Y-66933200D02*
X72128525Y-66933200D01*
X66040000Y-54045063D02*
X66040000Y-60345063D01*
X70013199Y-62561800D02*
X68580000Y-63994999D01*
X64888201Y-66933200D02*
X63740000Y-68081401D01*
D27*
X57426115Y-63427695D02*
X57538420Y-63540000D01*
D25*
X63500000Y-65544999D02*
X64888201Y-66933200D01*
X61495001Y-63540000D02*
X63500000Y-65544999D01*
X57538420Y-63540000D02*
X61495001Y-63540000D01*
X57518420Y-63520000D02*
X57538420Y-63540000D01*
X66040000Y-60345063D02*
X69993363Y-60345063D01*
X72210100Y-62561800D02*
X70013199Y-62561800D01*
X69993363Y-60345063D02*
X72210100Y-62561800D01*
X69190324Y-63994999D02*
X72128525Y-66933200D01*
X57426115Y-63520000D02*
X57518420Y-63520000D01*
X63740000Y-68081401D02*
X63740000Y-69194935D01*
%TD*%
%TA.AperFunction,Conductor*%
%TO.N,GND*%
G36*
X101543039Y-48279685D02*
G01*
X101588794Y-48332489D01*
X101600000Y-48384000D01*
X101600000Y-81156000D01*
X101580315Y-81223039D01*
X101527511Y-81268794D01*
X101476000Y-81280000D01*
X48384000Y-81280000D01*
X48316961Y-81260315D01*
X48271206Y-81207511D01*
X48260000Y-81156000D01*
X48260000Y-78618711D01*
X48949500Y-78618711D01*
X48949500Y-78861287D01*
X48981161Y-79101785D01*
X49043947Y-79336104D01*
X49102869Y-79478354D01*
X49136776Y-79560212D01*
X49258064Y-79770289D01*
X49258066Y-79770292D01*
X49258067Y-79770293D01*
X49405733Y-79962736D01*
X49405739Y-79962743D01*
X49577256Y-80134260D01*
X49577262Y-80134265D01*
X49769711Y-80281936D01*
X49979788Y-80403224D01*
X50203900Y-80496054D01*
X50438211Y-80558838D01*
X50618586Y-80582584D01*
X50678711Y-80590500D01*
X50678712Y-80590500D01*
X50921289Y-80590500D01*
X50969388Y-80584167D01*
X51161789Y-80558838D01*
X51396100Y-80496054D01*
X51620212Y-80403224D01*
X51830289Y-80281936D01*
X52022738Y-80134265D01*
X52194265Y-79962738D01*
X52341936Y-79770289D01*
X52463224Y-79560212D01*
X52556054Y-79336100D01*
X52587647Y-79218195D01*
X64310178Y-79218195D01*
X64320321Y-79317480D01*
X64373629Y-79478354D01*
X64373634Y-79478365D01*
X64462601Y-79622601D01*
X64462604Y-79622605D01*
X64582444Y-79742445D01*
X64582448Y-79742448D01*
X64726684Y-79831415D01*
X64726695Y-79831420D01*
X64887570Y-79884728D01*
X64986860Y-79894872D01*
X65010177Y-79894871D01*
X65010177Y-79169873D01*
X64310178Y-79169873D01*
X64310178Y-79218195D01*
X52587647Y-79218195D01*
X52618838Y-79101789D01*
X52650500Y-78861288D01*
X52650500Y-78621550D01*
X64310177Y-78621550D01*
X64310177Y-78669873D01*
X65010177Y-78669873D01*
X65010177Y-77944872D01*
X64986870Y-77944873D01*
X64986851Y-77944874D01*
X64887569Y-77955017D01*
X64726695Y-78008325D01*
X64726684Y-78008330D01*
X64582448Y-78097297D01*
X64582444Y-78097300D01*
X64462604Y-78217140D01*
X64462601Y-78217144D01*
X64373634Y-78361380D01*
X64373629Y-78361391D01*
X64320321Y-78522266D01*
X64310177Y-78621550D01*
X52650500Y-78621550D01*
X52650500Y-78618712D01*
X52647630Y-78596915D01*
X52637803Y-78522266D01*
X52618838Y-78378211D01*
X52556054Y-78143900D01*
X52463224Y-77919788D01*
X52341936Y-77709711D01*
X52194265Y-77517262D01*
X52194260Y-77517256D01*
X52022743Y-77345739D01*
X52022736Y-77345733D01*
X51830293Y-77198067D01*
X51830292Y-77198066D01*
X51830289Y-77198064D01*
X51620212Y-77076776D01*
X51598837Y-77067922D01*
X51396104Y-76983947D01*
X51278944Y-76952554D01*
X51161789Y-76921162D01*
X51161788Y-76921161D01*
X51161785Y-76921161D01*
X50921289Y-76889500D01*
X50921288Y-76889500D01*
X50678712Y-76889500D01*
X50678711Y-76889500D01*
X50438214Y-76921161D01*
X50203895Y-76983947D01*
X49979794Y-77076773D01*
X49979785Y-77076777D01*
X49769706Y-77198067D01*
X49577263Y-77345733D01*
X49577256Y-77345739D01*
X49405739Y-77517256D01*
X49405733Y-77517263D01*
X49258067Y-77709706D01*
X49136777Y-77919785D01*
X49136773Y-77919794D01*
X49043947Y-78143895D01*
X48981161Y-78378214D01*
X48949500Y-78618711D01*
X48260000Y-78618711D01*
X48260000Y-73707549D01*
X55836293Y-73707549D01*
X55836293Y-73920123D01*
X55869547Y-74130079D01*
X55909356Y-74252599D01*
X55935237Y-74332250D01*
X56031744Y-74521656D01*
X56156683Y-74693622D01*
X56295498Y-74832437D01*
X56328983Y-74893760D01*
X56323999Y-74963452D01*
X56282127Y-75019385D01*
X56272914Y-75025657D01*
X56118135Y-75121125D01*
X55994082Y-75245178D01*
X55901980Y-75394499D01*
X55901978Y-75394504D01*
X55874142Y-75478506D01*
X55846794Y-75561039D01*
X55846794Y-75561040D01*
X55846793Y-75561040D01*
X55836293Y-75663819D01*
X55836293Y-76963837D01*
X55836294Y-76963854D01*
X55846793Y-77066632D01*
X55846794Y-77066635D01*
X55893345Y-77207115D01*
X55901979Y-77233170D01*
X55994081Y-77382492D01*
X56118137Y-77506548D01*
X56267459Y-77598650D01*
X56433996Y-77653835D01*
X56536784Y-77664336D01*
X58136801Y-77664335D01*
X58239590Y-77653835D01*
X58406127Y-77598650D01*
X58555449Y-77506548D01*
X58679505Y-77382492D01*
X58771607Y-77233170D01*
X58826792Y-77066633D01*
X58837293Y-76963845D01*
X58837292Y-75663828D01*
X58826792Y-75561039D01*
X58771607Y-75394502D01*
X58679505Y-75245180D01*
X58555449Y-75121124D01*
X58406127Y-75029022D01*
X58406126Y-75029021D01*
X58400671Y-75025657D01*
X58353947Y-74973709D01*
X58342724Y-74904746D01*
X58370568Y-74840664D01*
X58378065Y-74832459D01*
X58516897Y-74693628D01*
X58570075Y-74620435D01*
X58641841Y-74521656D01*
X58641840Y-74521656D01*
X58641844Y-74521652D01*
X58738350Y-74332248D01*
X58804039Y-74130079D01*
X58837293Y-73920123D01*
X58837293Y-73707549D01*
X58804039Y-73497593D01*
X58738350Y-73295424D01*
X58641844Y-73106020D01*
X58641842Y-73106017D01*
X58641841Y-73106015D01*
X58516902Y-72934049D01*
X58366579Y-72783726D01*
X58194613Y-72658787D01*
X58005207Y-72562280D01*
X58005206Y-72562279D01*
X58005205Y-72562279D01*
X57803036Y-72496590D01*
X57803034Y-72496589D01*
X57803033Y-72496589D01*
X57641750Y-72471044D01*
X57593080Y-72463336D01*
X57080506Y-72463336D01*
X57031835Y-72471044D01*
X56870553Y-72496589D01*
X56668378Y-72562280D01*
X56478972Y-72658787D01*
X56307006Y-72783726D01*
X56156683Y-72934049D01*
X56031744Y-73106015D01*
X55935237Y-73295421D01*
X55869546Y-73497596D01*
X55838601Y-73692976D01*
X55836293Y-73707549D01*
X48260000Y-73707549D01*
X48260000Y-53119877D01*
X55925615Y-53119877D01*
X55925615Y-53332451D01*
X55958869Y-53542407D01*
X56023103Y-53740099D01*
X56024559Y-53744578D01*
X56121066Y-53933984D01*
X56246005Y-54105950D01*
X56385183Y-54245128D01*
X56418668Y-54306451D01*
X56413684Y-54376143D01*
X56371812Y-54432076D01*
X56362599Y-54438347D01*
X56207774Y-54533844D01*
X56207770Y-54533847D01*
X56083799Y-54657818D01*
X55991758Y-54807039D01*
X55991756Y-54807044D01*
X55936609Y-54973466D01*
X55936608Y-54973473D01*
X55926115Y-55076177D01*
X55926115Y-55476164D01*
X56993103Y-55476164D01*
X56960190Y-55533171D01*
X56926115Y-55660338D01*
X56926115Y-55791990D01*
X56960190Y-55919157D01*
X56993103Y-55976164D01*
X55926116Y-55976164D01*
X55926116Y-56376150D01*
X55936609Y-56478861D01*
X55991756Y-56645283D01*
X55991758Y-56645288D01*
X56083799Y-56794509D01*
X56207769Y-56918479D01*
X56356990Y-57010520D01*
X56356995Y-57010522D01*
X56523417Y-57065669D01*
X56523424Y-57065670D01*
X56626134Y-57076163D01*
X57176114Y-57076163D01*
X57176115Y-57076162D01*
X57176115Y-56159176D01*
X57233122Y-56192089D01*
X57360289Y-56226164D01*
X57491941Y-56226164D01*
X57619108Y-56192089D01*
X57676115Y-56159176D01*
X57676115Y-57076163D01*
X58226087Y-57076163D01*
X58226101Y-57076162D01*
X58328812Y-57065669D01*
X58495234Y-57010522D01*
X58495239Y-57010520D01*
X58644460Y-56918479D01*
X58768430Y-56794509D01*
X58860471Y-56645288D01*
X58860473Y-56645283D01*
X58915620Y-56478861D01*
X58915621Y-56478854D01*
X58926114Y-56376150D01*
X58926115Y-56376137D01*
X58926115Y-55976164D01*
X57859127Y-55976164D01*
X57892040Y-55919157D01*
X57926115Y-55791990D01*
X57926115Y-55660338D01*
X57892040Y-55533171D01*
X57859127Y-55476164D01*
X58926114Y-55476164D01*
X58926114Y-55076192D01*
X58926113Y-55076177D01*
X58915620Y-54973467D01*
X58910683Y-54958565D01*
X58908283Y-54888736D01*
X58944016Y-54828695D01*
X59006536Y-54797504D01*
X59028390Y-54795563D01*
X62365501Y-54795563D01*
X62432540Y-54815248D01*
X62478295Y-54868052D01*
X62489501Y-54919563D01*
X62489501Y-55092939D01*
X62495908Y-55152546D01*
X62546202Y-55287391D01*
X62546206Y-55287398D01*
X62632452Y-55402607D01*
X62632455Y-55402610D01*
X62747664Y-55488856D01*
X62747671Y-55488860D01*
X62882517Y-55539154D01*
X62882516Y-55539154D01*
X62889444Y-55539898D01*
X62942127Y-55545563D01*
X64537872Y-55545562D01*
X64597483Y-55539154D01*
X64732331Y-55488859D01*
X64815689Y-55426456D01*
X64881153Y-55402040D01*
X64949426Y-55416891D01*
X64964311Y-55426457D01*
X65047669Y-55488859D01*
X65047671Y-55488860D01*
X65182517Y-55539154D01*
X65190062Y-55540937D01*
X65189523Y-55543214D01*
X65243287Y-55565471D01*
X65283147Y-55622856D01*
X65289500Y-55662038D01*
X65289500Y-58720563D01*
X65269815Y-58787602D01*
X65217011Y-58833357D01*
X65165500Y-58844563D01*
X64092129Y-58844563D01*
X64092123Y-58844564D01*
X64032516Y-58850971D01*
X63897671Y-58901265D01*
X63897664Y-58901269D01*
X63782455Y-58987515D01*
X63782452Y-58987518D01*
X63696206Y-59102727D01*
X63696202Y-59102734D01*
X63645908Y-59237580D01*
X63639501Y-59297179D01*
X63639501Y-59297186D01*
X63639500Y-59297198D01*
X63639500Y-61392933D01*
X63639501Y-61392939D01*
X63645908Y-61452546D01*
X63696202Y-61587391D01*
X63696206Y-61587398D01*
X63782452Y-61702607D01*
X63782455Y-61702610D01*
X63897664Y-61788856D01*
X63897671Y-61788860D01*
X64032517Y-61839154D01*
X64032516Y-61839154D01*
X64039444Y-61839898D01*
X64092127Y-61845563D01*
X67987872Y-61845562D01*
X68047483Y-61839154D01*
X68182331Y-61788859D01*
X68297546Y-61702609D01*
X68383796Y-61587394D01*
X68434091Y-61452546D01*
X68440500Y-61392936D01*
X68440500Y-61219563D01*
X68460185Y-61152524D01*
X68512989Y-61106769D01*
X68564500Y-61095563D01*
X69631133Y-61095563D01*
X69698172Y-61115248D01*
X69718814Y-61131882D01*
X70186551Y-61599619D01*
X70220036Y-61660942D01*
X70215052Y-61730634D01*
X70173180Y-61786567D01*
X70107716Y-61810984D01*
X70098870Y-61811300D01*
X69939279Y-61811300D01*
X69810976Y-61836822D01*
X69799253Y-61839154D01*
X69798240Y-61839355D01*
X69794287Y-61840141D01*
X69794281Y-61840143D01*
X69657710Y-61896712D01*
X69657697Y-61896719D01*
X69534783Y-61978848D01*
X69534779Y-61978851D01*
X68505449Y-63008180D01*
X68444126Y-63041665D01*
X68417769Y-63044499D01*
X68281663Y-63044499D01*
X68281644Y-63044500D01*
X68182292Y-63054649D01*
X68182289Y-63054650D01*
X68021305Y-63107995D01*
X68021294Y-63108000D01*
X67876959Y-63197028D01*
X67876955Y-63197031D01*
X67757032Y-63316954D01*
X67757029Y-63316958D01*
X67668001Y-63461293D01*
X67667996Y-63461304D01*
X67614651Y-63622289D01*
X67604500Y-63721646D01*
X67604500Y-64268336D01*
X67604501Y-64268354D01*
X67614650Y-64367706D01*
X67614651Y-64367709D01*
X67667996Y-64528693D01*
X67668001Y-64528704D01*
X67757029Y-64673039D01*
X67757032Y-64673043D01*
X67766660Y-64682671D01*
X67800145Y-64743994D01*
X67795161Y-64813686D01*
X67766663Y-64858030D01*
X67757428Y-64867264D01*
X67757424Y-64867270D01*
X67668457Y-65011506D01*
X67668452Y-65011517D01*
X67615144Y-65172392D01*
X67605000Y-65271676D01*
X67605000Y-65294999D01*
X68706000Y-65294999D01*
X68773039Y-65314684D01*
X68818794Y-65367488D01*
X68830000Y-65418999D01*
X68830000Y-65670999D01*
X68810315Y-65738038D01*
X68757511Y-65783793D01*
X68706000Y-65794999D01*
X67605001Y-65794999D01*
X67605001Y-65818321D01*
X67615144Y-65917606D01*
X67648973Y-66019696D01*
X67651375Y-66089525D01*
X67615643Y-66149567D01*
X67553122Y-66180759D01*
X67531267Y-66182700D01*
X65250430Y-66182700D01*
X65183391Y-66163015D01*
X65162749Y-66146381D01*
X64511818Y-65495449D01*
X64478333Y-65434126D01*
X64475499Y-65407768D01*
X64475499Y-65271661D01*
X64475498Y-65271643D01*
X64465349Y-65172291D01*
X64465348Y-65172288D01*
X64441684Y-65100875D01*
X64412003Y-65011302D01*
X64411999Y-65011296D01*
X64411998Y-65011293D01*
X64322970Y-64866958D01*
X64322967Y-64866954D01*
X64313339Y-64857326D01*
X64279854Y-64796003D01*
X64284838Y-64726311D01*
X64313345Y-64681958D01*
X64322573Y-64672730D01*
X64411542Y-64528491D01*
X64411547Y-64528480D01*
X64464855Y-64367605D01*
X64474999Y-64268321D01*
X64475000Y-64268308D01*
X64475000Y-64244999D01*
X63374000Y-64244999D01*
X63306961Y-64225314D01*
X63261206Y-64172510D01*
X63250000Y-64120999D01*
X63250000Y-63744999D01*
X63750000Y-63744999D01*
X64474999Y-63744999D01*
X64474999Y-63721691D01*
X64474998Y-63721676D01*
X64464855Y-63622391D01*
X64411547Y-63461517D01*
X64411542Y-63461506D01*
X64322575Y-63317270D01*
X64322572Y-63317266D01*
X64202732Y-63197426D01*
X64202728Y-63197423D01*
X64058492Y-63108456D01*
X64058481Y-63108451D01*
X63897606Y-63055143D01*
X63798322Y-63044999D01*
X63750000Y-63044999D01*
X63750000Y-63744999D01*
X63250000Y-63744999D01*
X63250000Y-63044999D01*
X63249999Y-63044998D01*
X63201693Y-63044999D01*
X63201675Y-63045000D01*
X63102392Y-63055143D01*
X62941518Y-63108451D01*
X62941507Y-63108456D01*
X62797271Y-63197423D01*
X62797267Y-63197426D01*
X62677426Y-63317267D01*
X62628599Y-63396428D01*
X62576651Y-63443152D01*
X62507688Y-63454373D01*
X62443606Y-63426529D01*
X62435380Y-63419011D01*
X61973422Y-62957052D01*
X61973415Y-62957046D01*
X61899730Y-62907812D01*
X61899730Y-62907813D01*
X61850492Y-62874913D01*
X61713918Y-62818343D01*
X61713908Y-62818340D01*
X61568921Y-62789500D01*
X61568919Y-62789500D01*
X58777866Y-62789500D01*
X58710827Y-62769815D01*
X58677547Y-62738384D01*
X58606222Y-62640211D01*
X58455901Y-62489890D01*
X58283935Y-62364951D01*
X58094529Y-62268444D01*
X58094528Y-62268443D01*
X58094527Y-62268443D01*
X57892358Y-62202754D01*
X57892356Y-62202753D01*
X57892355Y-62202753D01*
X57731072Y-62177208D01*
X57682402Y-62169500D01*
X57169828Y-62169500D01*
X57121157Y-62177208D01*
X56959875Y-62202753D01*
X56757700Y-62268444D01*
X56568294Y-62364951D01*
X56396328Y-62489890D01*
X56246005Y-62640213D01*
X56121066Y-62812179D01*
X56024559Y-63001585D01*
X55958868Y-63203760D01*
X55925615Y-63413713D01*
X55925615Y-63626286D01*
X55949567Y-63777517D01*
X55958869Y-63836243D01*
X55995019Y-63947502D01*
X56024559Y-64038414D01*
X56121066Y-64227820D01*
X56246005Y-64399786D01*
X56385183Y-64538964D01*
X56418668Y-64600287D01*
X56413684Y-64669979D01*
X56371812Y-64725912D01*
X56362599Y-64732183D01*
X56207774Y-64827680D01*
X56207770Y-64827683D01*
X56083799Y-64951654D01*
X55991758Y-65100875D01*
X55991756Y-65100880D01*
X55936609Y-65267302D01*
X55936608Y-65267309D01*
X55926115Y-65370013D01*
X55926115Y-65770000D01*
X56993103Y-65770000D01*
X56960190Y-65827007D01*
X56926115Y-65954174D01*
X56926115Y-66085826D01*
X56960190Y-66212993D01*
X56993103Y-66270000D01*
X55926116Y-66270000D01*
X55926116Y-66669986D01*
X55936609Y-66772697D01*
X55991756Y-66939119D01*
X55991758Y-66939124D01*
X56083799Y-67088345D01*
X56207769Y-67212315D01*
X56356990Y-67304356D01*
X56356995Y-67304358D01*
X56523417Y-67359505D01*
X56523424Y-67359506D01*
X56626134Y-67369999D01*
X57176114Y-67369999D01*
X57176115Y-67369998D01*
X57176115Y-66453012D01*
X57233122Y-66485925D01*
X57360289Y-66520000D01*
X57491941Y-66520000D01*
X57619108Y-66485925D01*
X57676115Y-66453012D01*
X57676115Y-67369999D01*
X58226087Y-67369999D01*
X58226101Y-67369998D01*
X58328812Y-67359505D01*
X58495234Y-67304358D01*
X58495239Y-67304356D01*
X58644460Y-67212315D01*
X58768430Y-67088345D01*
X58860471Y-66939124D01*
X58860473Y-66939119D01*
X58915620Y-66772697D01*
X58915621Y-66772690D01*
X58926114Y-66669986D01*
X58926115Y-66669973D01*
X58926115Y-66270000D01*
X57859127Y-66270000D01*
X57892040Y-66212993D01*
X57926115Y-66085826D01*
X57926115Y-65954174D01*
X57892040Y-65827007D01*
X57859127Y-65770000D01*
X58926114Y-65770000D01*
X58926114Y-65370028D01*
X58926113Y-65370013D01*
X58915620Y-65267302D01*
X58860473Y-65100880D01*
X58860471Y-65100875D01*
X58768430Y-64951654D01*
X58644460Y-64827684D01*
X58489630Y-64732184D01*
X58442906Y-64680236D01*
X58431683Y-64611273D01*
X58459527Y-64547191D01*
X58467024Y-64538986D01*
X58606219Y-64399792D01*
X58648486Y-64341615D01*
X58703816Y-64298949D01*
X58748805Y-64290500D01*
X61132771Y-64290500D01*
X61199810Y-64310185D01*
X61220452Y-64326819D01*
X62488181Y-65594548D01*
X62521666Y-65655871D01*
X62524500Y-65682228D01*
X62524500Y-65818335D01*
X62524501Y-65818354D01*
X62534650Y-65917706D01*
X62534651Y-65917709D01*
X62587996Y-66078693D01*
X62588001Y-66078704D01*
X62677029Y-66223039D01*
X62677032Y-66223043D01*
X62796955Y-66342966D01*
X62796959Y-66342969D01*
X62941294Y-66431997D01*
X62941297Y-66431998D01*
X62941303Y-66432002D01*
X63102292Y-66485348D01*
X63201655Y-66495499D01*
X63337769Y-66495498D01*
X63404809Y-66515182D01*
X63425451Y-66531817D01*
X63739152Y-66845518D01*
X63772637Y-66906841D01*
X63767653Y-66976533D01*
X63739152Y-67020880D01*
X63157052Y-67602979D01*
X63157049Y-67602982D01*
X63132766Y-67639326D01*
X63079154Y-67684131D01*
X63029665Y-67694435D01*
X62942130Y-67694435D01*
X62942123Y-67694436D01*
X62882516Y-67700843D01*
X62747671Y-67751137D01*
X62747664Y-67751141D01*
X62632455Y-67837387D01*
X62632452Y-67837390D01*
X62546206Y-67952599D01*
X62546202Y-67952606D01*
X62495908Y-68087452D01*
X62489501Y-68147051D01*
X62489500Y-68147070D01*
X62489500Y-70242805D01*
X62489501Y-70242811D01*
X62495908Y-70302418D01*
X62546202Y-70437263D01*
X62546206Y-70437270D01*
X62632452Y-70552479D01*
X62632455Y-70552482D01*
X62747664Y-70638728D01*
X62747671Y-70638732D01*
X62882517Y-70689026D01*
X62882516Y-70689026D01*
X62889444Y-70689770D01*
X62942127Y-70695435D01*
X64537872Y-70695434D01*
X64597483Y-70689026D01*
X64732331Y-70638731D01*
X64815689Y-70576328D01*
X64881153Y-70551912D01*
X64949426Y-70566763D01*
X64964311Y-70576329D01*
X65047669Y-70638731D01*
X65047671Y-70638732D01*
X65182517Y-70689026D01*
X65190062Y-70690809D01*
X65189523Y-70693086D01*
X65243287Y-70715343D01*
X65283147Y-70772728D01*
X65289500Y-70811910D01*
X65289500Y-73870435D01*
X65269815Y-73937474D01*
X65217011Y-73983229D01*
X65165500Y-73994435D01*
X64092129Y-73994435D01*
X64092123Y-73994436D01*
X64032516Y-74000843D01*
X63897671Y-74051137D01*
X63897664Y-74051141D01*
X63782455Y-74137387D01*
X63782452Y-74137390D01*
X63696206Y-74252599D01*
X63696202Y-74252606D01*
X63645908Y-74387452D01*
X63639501Y-74447051D01*
X63639501Y-74447058D01*
X63639500Y-74447070D01*
X63639500Y-76542805D01*
X63639501Y-76542811D01*
X63645908Y-76602418D01*
X63696202Y-76737263D01*
X63696206Y-76737270D01*
X63782452Y-76852479D01*
X63782455Y-76852482D01*
X63897664Y-76938728D01*
X63897671Y-76938732D01*
X64032517Y-76989026D01*
X64032516Y-76989026D01*
X64039444Y-76989770D01*
X64092127Y-76995435D01*
X66423835Y-76995434D01*
X66490874Y-77015119D01*
X66536629Y-77067922D01*
X66546573Y-77137081D01*
X66517548Y-77200637D01*
X66511516Y-77207115D01*
X66227226Y-77491405D01*
X66227224Y-77491408D01*
X66209948Y-77517262D01*
X66209949Y-77517263D01*
X66145091Y-77614331D01*
X66088520Y-77750905D01*
X66088517Y-77750915D01*
X66059677Y-77895902D01*
X66059677Y-77950232D01*
X66039992Y-78017271D01*
X65987188Y-78063026D01*
X65918030Y-78072970D01*
X65870580Y-78055770D01*
X65793669Y-78008330D01*
X65793658Y-78008325D01*
X65632783Y-77955017D01*
X65533499Y-77944873D01*
X65510177Y-77944873D01*
X65510177Y-79894872D01*
X65533485Y-79894872D01*
X65533499Y-79894871D01*
X65632784Y-79884728D01*
X65793658Y-79831420D01*
X65793669Y-79831415D01*
X65937908Y-79742446D01*
X65947136Y-79733218D01*
X66008456Y-79699729D01*
X66078148Y-79704708D01*
X66122504Y-79733212D01*
X66132132Y-79742840D01*
X66132136Y-79742843D01*
X66276471Y-79831871D01*
X66276474Y-79831872D01*
X66276480Y-79831876D01*
X66437469Y-79885222D01*
X66536832Y-79895373D01*
X66672946Y-79895372D01*
X66739986Y-79915056D01*
X66760628Y-79931691D01*
X67284233Y-80455296D01*
X67388768Y-80559831D01*
X67388771Y-80559833D01*
X67388772Y-80559834D01*
X67511687Y-80641963D01*
X67511690Y-80641965D01*
X67568263Y-80665398D01*
X67568264Y-80665398D01*
X67648272Y-80698539D01*
X67764425Y-80721643D01*
X67783652Y-80725467D01*
X67793265Y-80727380D01*
X67793266Y-80727380D01*
X75037040Y-80727380D01*
X75134582Y-80707976D01*
X75182033Y-80698538D01*
X75318615Y-80641964D01*
X75367849Y-80609066D01*
X75441536Y-80559832D01*
X76782951Y-79218416D01*
X76865084Y-79095495D01*
X76921658Y-78958913D01*
X76941077Y-78861288D01*
X76950500Y-78813918D01*
X76950500Y-78618711D01*
X97209500Y-78618711D01*
X97209500Y-78861287D01*
X97241161Y-79101785D01*
X97303947Y-79336104D01*
X97362869Y-79478354D01*
X97396776Y-79560212D01*
X97518064Y-79770289D01*
X97518066Y-79770292D01*
X97518067Y-79770293D01*
X97665733Y-79962736D01*
X97665739Y-79962743D01*
X97837256Y-80134260D01*
X97837262Y-80134265D01*
X98029711Y-80281936D01*
X98239788Y-80403224D01*
X98463900Y-80496054D01*
X98698211Y-80558838D01*
X98878586Y-80582584D01*
X98938711Y-80590500D01*
X98938712Y-80590500D01*
X99181289Y-80590500D01*
X99229388Y-80584167D01*
X99421789Y-80558838D01*
X99656100Y-80496054D01*
X99880212Y-80403224D01*
X100090289Y-80281936D01*
X100282738Y-80134265D01*
X100454265Y-79962738D01*
X100601936Y-79770289D01*
X100723224Y-79560212D01*
X100816054Y-79336100D01*
X100878838Y-79101789D01*
X100910500Y-78861288D01*
X100910500Y-78618712D01*
X100907630Y-78596915D01*
X100897803Y-78522266D01*
X100878838Y-78378211D01*
X100816054Y-78143900D01*
X100723224Y-77919788D01*
X100601936Y-77709711D01*
X100454265Y-77517262D01*
X100454260Y-77517256D01*
X100282743Y-77345739D01*
X100282736Y-77345733D01*
X100090293Y-77198067D01*
X100090292Y-77198066D01*
X100090289Y-77198064D01*
X99880212Y-77076776D01*
X99858837Y-77067922D01*
X99656104Y-76983947D01*
X99538944Y-76952554D01*
X99421789Y-76921162D01*
X99421788Y-76921161D01*
X99421785Y-76921161D01*
X99181289Y-76889500D01*
X99181288Y-76889500D01*
X98938712Y-76889500D01*
X98938711Y-76889500D01*
X98698214Y-76921161D01*
X98463895Y-76983947D01*
X98239794Y-77076773D01*
X98239785Y-77076777D01*
X98029706Y-77198067D01*
X97837263Y-77345733D01*
X97837256Y-77345739D01*
X97665739Y-77517256D01*
X97665733Y-77517263D01*
X97518067Y-77709706D01*
X97396777Y-77919785D01*
X97396773Y-77919794D01*
X97303947Y-78143895D01*
X97241161Y-78378214D01*
X97209500Y-78618711D01*
X76950500Y-78618711D01*
X76950500Y-72307500D01*
X92700000Y-72307500D01*
X99400000Y-72307500D01*
X99400000Y-57907500D01*
X92700000Y-57907500D01*
X92700000Y-72307500D01*
X76950500Y-72307500D01*
X76950500Y-70093124D01*
X76970185Y-70026085D01*
X77003378Y-69991548D01*
X77003432Y-69991509D01*
X77006877Y-69989098D01*
X77161598Y-69834377D01*
X77287102Y-69655139D01*
X77357618Y-69503914D01*
X77403790Y-69451477D01*
X77470984Y-69432325D01*
X77537865Y-69452541D01*
X77582381Y-69503914D01*
X77652898Y-69655139D01*
X77778402Y-69834377D01*
X77933123Y-69989098D01*
X78112361Y-70114602D01*
X78310670Y-70207075D01*
X78522023Y-70263707D01*
X78704926Y-70279708D01*
X78739998Y-70282777D01*
X78740000Y-70282777D01*
X78740002Y-70282777D01*
X78768254Y-70280305D01*
X78957977Y-70263707D01*
X79169330Y-70207075D01*
X79367639Y-70114602D01*
X79546877Y-69989098D01*
X79701598Y-69834377D01*
X79827102Y-69655139D01*
X79919575Y-69456830D01*
X79976207Y-69245477D01*
X79995277Y-69027500D01*
X79976207Y-68809523D01*
X79919575Y-68598170D01*
X79827102Y-68399862D01*
X79827100Y-68399859D01*
X79827099Y-68399857D01*
X79701599Y-68220624D01*
X79628026Y-68147051D01*
X79546877Y-68065902D01*
X79367639Y-67940398D01*
X79216414Y-67869881D01*
X79163977Y-67823710D01*
X79144825Y-67756516D01*
X79165041Y-67689635D01*
X79216414Y-67645118D01*
X79367639Y-67574602D01*
X79546877Y-67449098D01*
X79701598Y-67294377D01*
X79827102Y-67115139D01*
X79919575Y-66916830D01*
X79976207Y-66705477D01*
X79995277Y-66487500D01*
X79993805Y-66470680D01*
X79989380Y-66420099D01*
X79976207Y-66269523D01*
X79927977Y-66089525D01*
X79919577Y-66058177D01*
X79919576Y-66058176D01*
X79919575Y-66058170D01*
X79827102Y-65859862D01*
X79827100Y-65859859D01*
X79827099Y-65859857D01*
X79701599Y-65680624D01*
X79628585Y-65607610D01*
X79546877Y-65525902D01*
X79367639Y-65400398D01*
X79216414Y-65329881D01*
X79163977Y-65283710D01*
X79144825Y-65216516D01*
X79165041Y-65149635D01*
X79216414Y-65105118D01*
X79367639Y-65034602D01*
X79546877Y-64909098D01*
X79701598Y-64754377D01*
X79827102Y-64575139D01*
X79919575Y-64376830D01*
X79976207Y-64165477D01*
X79995277Y-63947500D01*
X79976207Y-63729523D01*
X79966494Y-63693274D01*
X79968157Y-63623425D01*
X79998586Y-63573502D01*
X81765857Y-61806234D01*
X81834311Y-61703786D01*
X81881463Y-61589952D01*
X81905500Y-61469107D01*
X81905500Y-61345894D01*
X81905500Y-54615226D01*
X81925185Y-54548187D01*
X81958374Y-54513654D01*
X82151401Y-54378495D01*
X82318495Y-54211401D01*
X82448425Y-54025842D01*
X82503002Y-53982217D01*
X82572500Y-53975023D01*
X82634855Y-54006546D01*
X82651575Y-54025842D01*
X82781500Y-54211395D01*
X82781505Y-54211401D01*
X82948599Y-54378495D01*
X83045384Y-54446265D01*
X83142165Y-54514032D01*
X83142167Y-54514033D01*
X83142170Y-54514035D01*
X83356337Y-54613903D01*
X83356343Y-54613904D01*
X83356344Y-54613905D01*
X83409004Y-54628015D01*
X83584592Y-54675063D01*
X83755319Y-54690000D01*
X83819999Y-54695659D01*
X83820000Y-54695659D01*
X83820001Y-54695659D01*
X83884681Y-54690000D01*
X84055408Y-54675063D01*
X84283663Y-54613903D01*
X84497830Y-54514035D01*
X84691401Y-54378495D01*
X84858495Y-54211401D01*
X84988425Y-54025842D01*
X85043002Y-53982217D01*
X85112500Y-53975023D01*
X85174855Y-54006546D01*
X85191575Y-54025842D01*
X85321500Y-54211395D01*
X85321505Y-54211401D01*
X85488599Y-54378495D01*
X85585384Y-54446265D01*
X85682165Y-54514032D01*
X85682167Y-54514033D01*
X85682170Y-54514035D01*
X85896337Y-54613903D01*
X85896343Y-54613904D01*
X85896344Y-54613905D01*
X85949004Y-54628015D01*
X86124592Y-54675063D01*
X86295319Y-54690000D01*
X86359999Y-54695659D01*
X86360000Y-54695659D01*
X86360001Y-54695659D01*
X86424681Y-54690000D01*
X86595408Y-54675063D01*
X86823663Y-54613903D01*
X87037830Y-54514035D01*
X87231401Y-54378495D01*
X87353717Y-54256178D01*
X87415036Y-54222696D01*
X87484728Y-54227680D01*
X87540662Y-54269551D01*
X87557577Y-54300528D01*
X87606646Y-54432088D01*
X87606649Y-54432093D01*
X87692809Y-54547187D01*
X87692812Y-54547190D01*
X87807906Y-54633350D01*
X87807913Y-54633354D01*
X87942620Y-54683596D01*
X87942627Y-54683598D01*
X88002155Y-54689999D01*
X88002172Y-54690000D01*
X88650000Y-54690000D01*
X88650000Y-53773012D01*
X88707007Y-53805925D01*
X88834174Y-53840000D01*
X88965826Y-53840000D01*
X89092993Y-53805925D01*
X89150000Y-53773012D01*
X89150000Y-54690000D01*
X89797828Y-54690000D01*
X89797844Y-54689999D01*
X89857372Y-54683598D01*
X89857379Y-54683596D01*
X89992086Y-54633354D01*
X89992093Y-54633350D01*
X90107187Y-54547190D01*
X90107190Y-54547187D01*
X90193350Y-54432093D01*
X90193354Y-54432086D01*
X90243596Y-54297379D01*
X90243598Y-54297372D01*
X90249999Y-54237844D01*
X90250000Y-54237827D01*
X90250000Y-53590000D01*
X89333012Y-53590000D01*
X89365925Y-53532993D01*
X89400000Y-53405826D01*
X89400000Y-53274174D01*
X89365925Y-53147007D01*
X89333012Y-53090000D01*
X90250000Y-53090000D01*
X90250000Y-52442172D01*
X90249999Y-52442155D01*
X90243598Y-52382627D01*
X90243596Y-52382620D01*
X90193354Y-52247913D01*
X90193350Y-52247906D01*
X90107190Y-52132812D01*
X90107187Y-52132809D01*
X89992093Y-52046649D01*
X89992086Y-52046645D01*
X89857379Y-51996403D01*
X89857372Y-51996401D01*
X89797844Y-51990000D01*
X89150000Y-51990000D01*
X89150000Y-52906988D01*
X89092993Y-52874075D01*
X88965826Y-52840000D01*
X88834174Y-52840000D01*
X88707007Y-52874075D01*
X88650000Y-52906988D01*
X88650000Y-51990000D01*
X88002155Y-51990000D01*
X87942627Y-51996401D01*
X87942620Y-51996403D01*
X87807913Y-52046645D01*
X87807906Y-52046649D01*
X87692812Y-52132809D01*
X87692809Y-52132812D01*
X87606649Y-52247906D01*
X87606645Y-52247913D01*
X87557578Y-52379470D01*
X87515707Y-52435404D01*
X87450242Y-52459821D01*
X87381969Y-52444969D01*
X87353715Y-52423819D01*
X87309366Y-52379470D01*
X87231401Y-52301505D01*
X87231397Y-52301502D01*
X87231396Y-52301501D01*
X87037832Y-52165966D01*
X86966733Y-52132812D01*
X86823663Y-52066097D01*
X86823659Y-52066096D01*
X86823655Y-52066094D01*
X86595413Y-52004938D01*
X86595403Y-52004936D01*
X86360001Y-51984341D01*
X86359999Y-51984341D01*
X86124596Y-52004936D01*
X86124586Y-52004938D01*
X85896344Y-52066094D01*
X85896335Y-52066098D01*
X85682171Y-52165964D01*
X85682169Y-52165965D01*
X85488597Y-52301505D01*
X85321505Y-52468597D01*
X85191575Y-52654158D01*
X85136998Y-52697783D01*
X85067500Y-52704977D01*
X85005145Y-52673454D01*
X84988425Y-52654158D01*
X84858494Y-52468597D01*
X84691402Y-52301506D01*
X84691395Y-52301501D01*
X84497832Y-52165966D01*
X84426733Y-52132812D01*
X84283663Y-52066097D01*
X84283659Y-52066096D01*
X84283655Y-52066094D01*
X84055413Y-52004938D01*
X84055403Y-52004936D01*
X83820001Y-51984341D01*
X83819999Y-51984341D01*
X83584596Y-52004936D01*
X83584586Y-52004938D01*
X83356344Y-52066094D01*
X83356335Y-52066098D01*
X83142171Y-52165964D01*
X83142169Y-52165965D01*
X82948597Y-52301505D01*
X82781505Y-52468597D01*
X82651575Y-52654158D01*
X82596998Y-52697783D01*
X82527500Y-52704977D01*
X82465145Y-52673454D01*
X82448425Y-52654158D01*
X82318494Y-52468597D01*
X82151402Y-52301506D01*
X82151395Y-52301501D01*
X81957832Y-52165966D01*
X81886733Y-52132812D01*
X81743663Y-52066097D01*
X81743659Y-52066096D01*
X81743655Y-52066094D01*
X81515413Y-52004938D01*
X81515403Y-52004936D01*
X81280001Y-51984341D01*
X81279999Y-51984341D01*
X81044596Y-52004936D01*
X81044586Y-52004938D01*
X80816344Y-52066094D01*
X80816335Y-52066098D01*
X80602171Y-52165964D01*
X80602169Y-52165965D01*
X80408597Y-52301505D01*
X80241505Y-52468597D01*
X80105965Y-52662169D01*
X80105964Y-52662171D01*
X80006098Y-52876335D01*
X80006094Y-52876344D01*
X79944938Y-53104586D01*
X79944936Y-53104596D01*
X79924341Y-53339999D01*
X79924341Y-53340000D01*
X79944936Y-53575403D01*
X79944938Y-53575413D01*
X80006094Y-53803655D01*
X80006096Y-53803659D01*
X80006097Y-53803663D01*
X80096672Y-53997901D01*
X80105965Y-54017830D01*
X80105967Y-54017834D01*
X80202421Y-54155584D01*
X80241501Y-54211396D01*
X80241506Y-54211402D01*
X80408597Y-54378493D01*
X80408603Y-54378498D01*
X80441036Y-54401208D01*
X80601624Y-54513653D01*
X80645248Y-54568228D01*
X80654500Y-54615226D01*
X80654500Y-61097047D01*
X80634815Y-61164086D01*
X80618181Y-61184728D01*
X80155385Y-61647523D01*
X80094062Y-61681008D01*
X80024370Y-61676024D01*
X79995547Y-61657500D01*
X79055686Y-61657500D01*
X79060080Y-61653106D01*
X79112741Y-61561894D01*
X79140000Y-61460161D01*
X79140000Y-61354839D01*
X79112741Y-61253106D01*
X79060080Y-61161894D01*
X79055686Y-61157500D01*
X79990000Y-61157500D01*
X79990000Y-60609672D01*
X79989999Y-60609655D01*
X79983598Y-60550127D01*
X79983596Y-60550120D01*
X79933354Y-60415413D01*
X79933350Y-60415406D01*
X79847190Y-60300312D01*
X79847187Y-60300309D01*
X79732093Y-60214149D01*
X79732086Y-60214145D01*
X79597379Y-60163903D01*
X79597372Y-60163901D01*
X79537844Y-60157500D01*
X78990000Y-60157500D01*
X78990000Y-61091814D01*
X78985606Y-61087420D01*
X78894394Y-61034759D01*
X78792661Y-61007500D01*
X78687339Y-61007500D01*
X78585606Y-61034759D01*
X78494394Y-61087420D01*
X78490000Y-61091814D01*
X78490000Y-60157500D01*
X77942155Y-60157500D01*
X77882627Y-60163901D01*
X77882620Y-60163903D01*
X77747913Y-60214145D01*
X77747906Y-60214149D01*
X77632812Y-60300309D01*
X77632809Y-60300312D01*
X77546649Y-60415406D01*
X77546645Y-60415413D01*
X77496403Y-60550120D01*
X77496401Y-60550127D01*
X77490000Y-60609655D01*
X77490000Y-60676352D01*
X77470315Y-60743391D01*
X77417511Y-60789146D01*
X77348353Y-60799090D01*
X77284797Y-60770065D01*
X77264425Y-60747475D01*
X77161599Y-60600624D01*
X77111095Y-60550120D01*
X77006877Y-60445902D01*
X76827639Y-60320398D01*
X76827640Y-60320398D01*
X76827638Y-60320397D01*
X76728484Y-60274161D01*
X76629330Y-60227925D01*
X76629326Y-60227924D01*
X76629322Y-60227922D01*
X76417977Y-60171293D01*
X76200002Y-60152223D01*
X76199998Y-60152223D01*
X76066516Y-60163901D01*
X75982023Y-60171293D01*
X75982020Y-60171293D01*
X75770677Y-60227922D01*
X75770668Y-60227926D01*
X75572361Y-60320398D01*
X75572357Y-60320400D01*
X75393121Y-60445902D01*
X75238402Y-60600621D01*
X75112900Y-60779857D01*
X75112898Y-60779861D01*
X75020426Y-60978168D01*
X75020422Y-60978177D01*
X74963793Y-61189520D01*
X74963793Y-61189524D01*
X74944723Y-61407497D01*
X74944723Y-61407502D01*
X74963793Y-61625475D01*
X74963793Y-61625479D01*
X75020422Y-61836822D01*
X75020424Y-61836826D01*
X75020425Y-61836830D01*
X75048352Y-61896719D01*
X75112897Y-62035138D01*
X75112898Y-62035139D01*
X75238402Y-62214377D01*
X75393123Y-62369098D01*
X75565632Y-62489890D01*
X75572361Y-62494602D01*
X75723583Y-62565118D01*
X75776022Y-62611290D01*
X75795174Y-62678484D01*
X75774958Y-62745365D01*
X75723583Y-62789882D01*
X75572361Y-62860398D01*
X75572357Y-62860400D01*
X75393121Y-62985902D01*
X75238402Y-63140621D01*
X75112900Y-63319857D01*
X75112898Y-63319861D01*
X75020426Y-63518168D01*
X75020422Y-63518177D01*
X74963793Y-63729520D01*
X74963793Y-63729524D01*
X74944723Y-63947497D01*
X74944723Y-63947502D01*
X74963793Y-64165475D01*
X74963793Y-64165479D01*
X75020422Y-64376822D01*
X75020424Y-64376826D01*
X75020425Y-64376830D01*
X75042382Y-64423916D01*
X75112897Y-64575138D01*
X75112898Y-64575139D01*
X75238402Y-64754377D01*
X75393123Y-64909098D01*
X75572360Y-65034601D01*
X75572361Y-65034602D01*
X75723583Y-65105118D01*
X75776022Y-65151290D01*
X75795174Y-65218484D01*
X75774958Y-65285365D01*
X75723583Y-65329882D01*
X75572361Y-65400398D01*
X75572357Y-65400400D01*
X75393121Y-65525902D01*
X75238402Y-65680621D01*
X75112900Y-65859857D01*
X75112898Y-65859861D01*
X75020426Y-66058168D01*
X75020422Y-66058177D01*
X74963793Y-66269520D01*
X74963793Y-66269524D01*
X74944723Y-66487497D01*
X74944723Y-66487502D01*
X74963793Y-66705475D01*
X74963793Y-66705479D01*
X75020422Y-66916822D01*
X75020424Y-66916826D01*
X75020425Y-66916830D01*
X75028058Y-66933199D01*
X75112897Y-67115138D01*
X75112898Y-67115139D01*
X75238402Y-67294377D01*
X75393123Y-67449098D01*
X75572360Y-67574601D01*
X75572361Y-67574602D01*
X75723583Y-67645118D01*
X75776022Y-67691290D01*
X75795174Y-67758484D01*
X75774958Y-67825365D01*
X75723583Y-67869882D01*
X75572361Y-67940398D01*
X75572357Y-67940400D01*
X75393121Y-68065902D01*
X75238402Y-68220621D01*
X75112900Y-68399857D01*
X75112898Y-68399861D01*
X75020426Y-68598168D01*
X75020422Y-68598177D01*
X74963793Y-68809520D01*
X74963793Y-68809524D01*
X74944723Y-69027497D01*
X74944723Y-69027502D01*
X74963793Y-69245475D01*
X74963793Y-69245479D01*
X75020422Y-69456822D01*
X75020424Y-69456826D01*
X75020425Y-69456830D01*
X75042382Y-69503916D01*
X75112897Y-69655138D01*
X75112898Y-69655139D01*
X75238402Y-69834377D01*
X75393118Y-69989093D01*
X75393123Y-69989098D01*
X75396622Y-69991548D01*
X75440248Y-70046125D01*
X75449500Y-70093124D01*
X75449500Y-78377770D01*
X75429815Y-78444809D01*
X75413181Y-78465451D01*
X74688571Y-79190061D01*
X74627248Y-79223546D01*
X74600890Y-79226380D01*
X68229413Y-79226380D01*
X68162374Y-79206695D01*
X68141732Y-79190061D01*
X67796995Y-78845323D01*
X67763510Y-78784000D01*
X67760676Y-78757642D01*
X67760676Y-78621535D01*
X67760675Y-78621517D01*
X67750526Y-78522165D01*
X67750525Y-78522162D01*
X67744776Y-78504813D01*
X67714386Y-78413103D01*
X67711985Y-78343277D01*
X67747717Y-78283235D01*
X67810237Y-78252042D01*
X67832093Y-78250101D01*
X70454992Y-78250101D01*
X70522031Y-78269786D01*
X70560529Y-78309002D01*
X70604788Y-78380757D01*
X70728844Y-78504813D01*
X70878166Y-78596915D01*
X71044703Y-78652100D01*
X71147491Y-78662601D01*
X73097508Y-78662600D01*
X73200297Y-78652100D01*
X73366834Y-78596915D01*
X73516156Y-78504813D01*
X73640212Y-78380757D01*
X73732314Y-78231435D01*
X73787499Y-78064898D01*
X73798000Y-77962110D01*
X73797999Y-77037093D01*
X73795754Y-77015119D01*
X73787499Y-76934304D01*
X73787498Y-76934301D01*
X73772652Y-76889500D01*
X73732314Y-76767767D01*
X73640212Y-76618445D01*
X73516156Y-76494389D01*
X73366834Y-76402287D01*
X73200297Y-76347102D01*
X73200295Y-76347101D01*
X73097516Y-76336601D01*
X73097509Y-76336601D01*
X72072230Y-76336601D01*
X72005191Y-76316916D01*
X71984549Y-76300282D01*
X71483048Y-75798781D01*
X71449563Y-75737458D01*
X71454547Y-75667766D01*
X71496419Y-75611833D01*
X71561883Y-75587416D01*
X71570729Y-75587100D01*
X71872500Y-75587100D01*
X72372500Y-75587100D01*
X73097472Y-75587100D01*
X73097486Y-75587099D01*
X73200197Y-75576606D01*
X73366619Y-75521459D01*
X73366624Y-75521457D01*
X73515845Y-75429416D01*
X73639815Y-75305446D01*
X73731856Y-75156225D01*
X73731858Y-75156220D01*
X73787005Y-74989798D01*
X73787006Y-74989791D01*
X73797499Y-74887087D01*
X73797500Y-74887074D01*
X73797500Y-74674601D01*
X72372500Y-74674601D01*
X72372500Y-75587100D01*
X71872500Y-75587100D01*
X71872500Y-74674601D01*
X70447502Y-74674601D01*
X70434866Y-74687236D01*
X70427812Y-74711256D01*
X70375006Y-74757009D01*
X70305847Y-74766949D01*
X70299309Y-74765829D01*
X70191755Y-74744435D01*
X70191752Y-74744435D01*
X68564499Y-74744435D01*
X68497460Y-74724750D01*
X68451705Y-74671946D01*
X68440499Y-74620435D01*
X68440499Y-74447064D01*
X68440498Y-74447058D01*
X68440497Y-74447051D01*
X68434091Y-74387452D01*
X68413501Y-74332248D01*
X68383797Y-74252606D01*
X68383793Y-74252599D01*
X68297547Y-74137390D01*
X68297544Y-74137387D01*
X68182335Y-74051141D01*
X68182328Y-74051137D01*
X68047482Y-74000843D01*
X68047483Y-74000843D01*
X67987883Y-73994436D01*
X67987881Y-73994435D01*
X67987873Y-73994435D01*
X67987865Y-73994435D01*
X66914500Y-73994435D01*
X66847461Y-73974750D01*
X66836512Y-73962114D01*
X70447500Y-73962114D01*
X70447500Y-74174601D01*
X71872500Y-74174601D01*
X72372500Y-74174601D01*
X73797499Y-74174601D01*
X73797499Y-73962129D01*
X73797498Y-73962114D01*
X73787005Y-73859403D01*
X73731858Y-73692981D01*
X73731856Y-73692976D01*
X73639815Y-73543755D01*
X73515845Y-73419785D01*
X73366624Y-73327744D01*
X73366619Y-73327742D01*
X73200197Y-73272595D01*
X73200190Y-73272594D01*
X73097486Y-73262101D01*
X72372500Y-73262101D01*
X72372500Y-74174601D01*
X71872500Y-74174601D01*
X71872500Y-73262101D01*
X71147528Y-73262101D01*
X71147512Y-73262102D01*
X71044802Y-73272595D01*
X70878380Y-73327742D01*
X70878375Y-73327744D01*
X70729154Y-73419785D01*
X70605184Y-73543755D01*
X70513143Y-73692976D01*
X70513141Y-73692981D01*
X70457994Y-73859403D01*
X70457993Y-73859410D01*
X70447500Y-73962114D01*
X66836512Y-73962114D01*
X66801706Y-73921946D01*
X66790500Y-73870435D01*
X66790500Y-70811911D01*
X66810185Y-70744872D01*
X66862989Y-70699117D01*
X66890135Y-70691671D01*
X66889932Y-70690811D01*
X66897479Y-70689027D01*
X66897481Y-70689026D01*
X66897483Y-70689026D01*
X67032331Y-70638731D01*
X67116105Y-70576017D01*
X67181569Y-70551600D01*
X67249842Y-70566451D01*
X67264727Y-70576017D01*
X67347910Y-70638287D01*
X67347913Y-70638289D01*
X67482620Y-70688531D01*
X67482627Y-70688533D01*
X67542155Y-70694934D01*
X67542172Y-70694935D01*
X68090000Y-70694935D01*
X68590000Y-70694935D01*
X69137828Y-70694935D01*
X69137844Y-70694934D01*
X69197372Y-70688533D01*
X69197379Y-70688531D01*
X69332086Y-70638289D01*
X69332093Y-70638285D01*
X69447187Y-70552125D01*
X69447190Y-70552122D01*
X69508153Y-70470686D01*
X70453526Y-70470686D01*
X70464019Y-70573397D01*
X70519166Y-70739819D01*
X70519168Y-70739824D01*
X70611209Y-70889045D01*
X70735179Y-71013015D01*
X70884400Y-71105056D01*
X70884405Y-71105058D01*
X71050827Y-71160205D01*
X71050834Y-71160206D01*
X71153544Y-71170699D01*
X71878524Y-71170699D01*
X72378525Y-71170699D01*
X73103497Y-71170699D01*
X73103511Y-71170698D01*
X73206222Y-71160205D01*
X73372644Y-71105058D01*
X73372649Y-71105056D01*
X73521870Y-71013015D01*
X73645840Y-70889045D01*
X73737881Y-70739824D01*
X73737883Y-70739819D01*
X73793030Y-70573397D01*
X73793031Y-70573390D01*
X73803524Y-70470686D01*
X73803525Y-70470673D01*
X73803525Y-70258200D01*
X72378525Y-70258200D01*
X72378525Y-71170699D01*
X71878524Y-71170699D01*
X71878525Y-71170698D01*
X71878525Y-70258200D01*
X70453526Y-70258200D01*
X70453526Y-70470686D01*
X69508153Y-70470686D01*
X69533350Y-70437028D01*
X69533354Y-70437021D01*
X69583596Y-70302314D01*
X69583598Y-70302307D01*
X69589999Y-70242779D01*
X69590000Y-70242762D01*
X69590000Y-69545713D01*
X70453525Y-69545713D01*
X70453525Y-69758200D01*
X71878525Y-69758200D01*
X72378525Y-69758200D01*
X73803524Y-69758200D01*
X73803524Y-69545728D01*
X73803523Y-69545713D01*
X73793030Y-69443002D01*
X73737883Y-69276580D01*
X73737881Y-69276575D01*
X73645840Y-69127354D01*
X73521870Y-69003384D01*
X73372649Y-68911343D01*
X73372644Y-68911341D01*
X73206222Y-68856194D01*
X73206215Y-68856193D01*
X73103511Y-68845700D01*
X72378525Y-68845700D01*
X72378525Y-69758200D01*
X71878525Y-69758200D01*
X71878525Y-68845700D01*
X71153553Y-68845700D01*
X71153537Y-68845701D01*
X71050827Y-68856194D01*
X70884405Y-68911341D01*
X70884400Y-68911343D01*
X70735179Y-69003384D01*
X70611209Y-69127354D01*
X70519168Y-69276575D01*
X70519166Y-69276580D01*
X70464019Y-69443002D01*
X70464018Y-69443009D01*
X70453525Y-69545713D01*
X69590000Y-69545713D01*
X69590000Y-69444935D01*
X68590000Y-69444935D01*
X68590000Y-70694935D01*
X68090000Y-70694935D01*
X68090000Y-69068935D01*
X68109685Y-69001896D01*
X68162489Y-68956141D01*
X68214000Y-68944935D01*
X69590000Y-68944935D01*
X69590000Y-68147107D01*
X69589999Y-68147090D01*
X69583598Y-68087562D01*
X69583596Y-68087555D01*
X69533354Y-67952848D01*
X69533352Y-67952845D01*
X69480326Y-67882012D01*
X69455908Y-67816548D01*
X69470759Y-67748275D01*
X69520164Y-67698869D01*
X69579592Y-67683700D01*
X70461017Y-67683700D01*
X70528056Y-67703385D01*
X70566554Y-67742601D01*
X70610813Y-67814356D01*
X70734869Y-67938412D01*
X70884191Y-68030514D01*
X71050728Y-68085699D01*
X71153516Y-68096200D01*
X73103533Y-68096199D01*
X73206322Y-68085699D01*
X73372859Y-68030514D01*
X73522181Y-67938412D01*
X73646237Y-67814356D01*
X73738339Y-67665034D01*
X73793524Y-67498497D01*
X73804025Y-67395709D01*
X73804024Y-66470692D01*
X73793524Y-66367903D01*
X73738339Y-66201366D01*
X73646237Y-66052044D01*
X73522181Y-65927988D01*
X73411729Y-65859861D01*
X73372861Y-65835887D01*
X73372856Y-65835885D01*
X73346064Y-65827007D01*
X73206322Y-65780701D01*
X73206320Y-65780700D01*
X73103541Y-65770200D01*
X73103534Y-65770200D01*
X72078255Y-65770200D01*
X72011216Y-65750515D01*
X71990574Y-65733881D01*
X70034210Y-63777517D01*
X70000725Y-63716194D01*
X70005709Y-63646502D01*
X70034210Y-63602155D01*
X70287747Y-63348619D01*
X70349070Y-63315134D01*
X70375428Y-63312300D01*
X70542592Y-63312300D01*
X70609631Y-63331985D01*
X70648129Y-63371201D01*
X70692388Y-63442956D01*
X70816444Y-63567012D01*
X70965766Y-63659114D01*
X71132303Y-63714299D01*
X71235091Y-63724800D01*
X73185108Y-63724799D01*
X73287897Y-63714299D01*
X73454434Y-63659114D01*
X73603756Y-63567012D01*
X73727812Y-63442956D01*
X73819914Y-63293634D01*
X73875099Y-63127097D01*
X73885600Y-63024309D01*
X73885599Y-62099292D01*
X73875099Y-61996503D01*
X73819914Y-61829966D01*
X73727812Y-61680644D01*
X73603756Y-61556588D01*
X73510988Y-61499369D01*
X73454436Y-61464487D01*
X73454431Y-61464485D01*
X73441382Y-61460161D01*
X73287897Y-61409301D01*
X73287895Y-61409300D01*
X73185116Y-61398800D01*
X73185109Y-61398800D01*
X72159829Y-61398800D01*
X72092790Y-61379115D01*
X72072148Y-61362481D01*
X71570648Y-60860980D01*
X71537163Y-60799657D01*
X71542147Y-60729965D01*
X71584019Y-60674032D01*
X71649483Y-60649615D01*
X71658329Y-60649299D01*
X71960100Y-60649299D01*
X72460100Y-60649299D01*
X73185072Y-60649299D01*
X73185086Y-60649298D01*
X73287797Y-60638805D01*
X73454219Y-60583658D01*
X73454224Y-60583656D01*
X73603445Y-60491615D01*
X73727415Y-60367645D01*
X73819456Y-60218424D01*
X73819458Y-60218419D01*
X73874605Y-60051997D01*
X73874606Y-60051990D01*
X73885099Y-59949286D01*
X73885100Y-59949273D01*
X73885100Y-59736800D01*
X72460100Y-59736800D01*
X72460100Y-60649299D01*
X71960100Y-60649299D01*
X71960100Y-59736800D01*
X70508971Y-59736800D01*
X70505187Y-59738866D01*
X70435496Y-59733874D01*
X70409950Y-59720799D01*
X70398092Y-59712876D01*
X70348854Y-59679976D01*
X70212280Y-59623406D01*
X70212270Y-59623403D01*
X70067283Y-59594563D01*
X70067281Y-59594563D01*
X68564499Y-59594563D01*
X68497460Y-59574878D01*
X68451705Y-59522074D01*
X68440499Y-59470563D01*
X68440499Y-59297192D01*
X68440498Y-59297186D01*
X68440497Y-59297179D01*
X68434091Y-59237580D01*
X68383796Y-59102732D01*
X68383795Y-59102731D01*
X68383793Y-59102727D01*
X68325092Y-59024313D01*
X70535100Y-59024313D01*
X70535100Y-59236800D01*
X71960100Y-59236800D01*
X72460100Y-59236800D01*
X73885099Y-59236800D01*
X73885099Y-59024328D01*
X73885098Y-59024313D01*
X73874605Y-58921602D01*
X73819458Y-58755180D01*
X73819456Y-58755175D01*
X73727415Y-58605954D01*
X73603445Y-58481984D01*
X73454224Y-58389943D01*
X73454219Y-58389941D01*
X73287797Y-58334794D01*
X73287790Y-58334793D01*
X73185086Y-58324300D01*
X72460100Y-58324300D01*
X72460100Y-59236800D01*
X71960100Y-59236800D01*
X71960100Y-58324300D01*
X71235128Y-58324300D01*
X71235112Y-58324301D01*
X71132402Y-58334794D01*
X70965980Y-58389941D01*
X70965975Y-58389943D01*
X70816754Y-58481984D01*
X70692784Y-58605954D01*
X70600743Y-58755175D01*
X70600741Y-58755180D01*
X70545594Y-58921602D01*
X70545593Y-58921609D01*
X70535100Y-59024313D01*
X68325092Y-59024313D01*
X68297547Y-58987518D01*
X68297544Y-58987515D01*
X68182335Y-58901269D01*
X68182328Y-58901265D01*
X68047482Y-58850971D01*
X68047483Y-58850971D01*
X67987883Y-58844564D01*
X67987881Y-58844563D01*
X67987873Y-58844563D01*
X67987865Y-58844563D01*
X66914500Y-58844563D01*
X66847461Y-58824878D01*
X66801706Y-58772074D01*
X66790500Y-58720563D01*
X66790500Y-55662039D01*
X66801997Y-55622886D01*
X70453526Y-55622886D01*
X70464019Y-55725597D01*
X70519166Y-55892019D01*
X70519168Y-55892024D01*
X70611209Y-56041245D01*
X70735179Y-56165215D01*
X70884400Y-56257256D01*
X70884405Y-56257258D01*
X71050827Y-56312405D01*
X71050834Y-56312406D01*
X71153544Y-56322899D01*
X71878524Y-56322899D01*
X72378525Y-56322899D01*
X73103497Y-56322899D01*
X73103511Y-56322898D01*
X73206222Y-56312405D01*
X73372644Y-56257258D01*
X73372649Y-56257256D01*
X73521870Y-56165215D01*
X73645840Y-56041245D01*
X73737881Y-55892024D01*
X73737883Y-55892019D01*
X73793030Y-55725597D01*
X73793031Y-55725590D01*
X73803524Y-55622886D01*
X73803525Y-55622873D01*
X73803525Y-55410400D01*
X72378525Y-55410400D01*
X72378525Y-56322899D01*
X71878524Y-56322899D01*
X71878525Y-56322898D01*
X71878525Y-55410400D01*
X70453526Y-55410400D01*
X70453526Y-55622886D01*
X66801997Y-55622886D01*
X66810185Y-55595000D01*
X66862989Y-55549245D01*
X66890135Y-55541799D01*
X66889932Y-55540939D01*
X66897479Y-55539155D01*
X66897481Y-55539154D01*
X66897483Y-55539154D01*
X67032331Y-55488859D01*
X67116105Y-55426145D01*
X67181569Y-55401728D01*
X67249842Y-55416579D01*
X67264727Y-55426145D01*
X67347910Y-55488415D01*
X67347913Y-55488417D01*
X67482620Y-55538659D01*
X67482627Y-55538661D01*
X67542155Y-55545062D01*
X67542172Y-55545063D01*
X68090000Y-55545063D01*
X68590000Y-55545063D01*
X69137828Y-55545063D01*
X69137844Y-55545062D01*
X69197372Y-55538661D01*
X69197379Y-55538659D01*
X69332086Y-55488417D01*
X69332093Y-55488413D01*
X69447187Y-55402253D01*
X69447190Y-55402250D01*
X69533350Y-55287156D01*
X69533354Y-55287149D01*
X69583596Y-55152442D01*
X69583598Y-55152435D01*
X69589999Y-55092907D01*
X69590000Y-55092890D01*
X69590000Y-54697913D01*
X70453525Y-54697913D01*
X70453525Y-54910400D01*
X71878525Y-54910400D01*
X72378525Y-54910400D01*
X73803524Y-54910400D01*
X73803524Y-54697928D01*
X73803523Y-54697913D01*
X73793030Y-54595202D01*
X73737883Y-54428780D01*
X73737881Y-54428775D01*
X73645840Y-54279554D01*
X73521870Y-54155584D01*
X73372649Y-54063543D01*
X73372644Y-54063541D01*
X73206222Y-54008394D01*
X73206215Y-54008393D01*
X73103511Y-53997900D01*
X72378525Y-53997900D01*
X72378525Y-54910400D01*
X71878525Y-54910400D01*
X71878525Y-53997900D01*
X71153553Y-53997900D01*
X71153537Y-53997901D01*
X71050827Y-54008394D01*
X70884405Y-54063541D01*
X70884400Y-54063543D01*
X70735179Y-54155584D01*
X70611209Y-54279554D01*
X70519168Y-54428775D01*
X70519166Y-54428780D01*
X70464019Y-54595202D01*
X70464018Y-54595209D01*
X70453525Y-54697913D01*
X69590000Y-54697913D01*
X69590000Y-54295063D01*
X68590000Y-54295063D01*
X68590000Y-55545063D01*
X68090000Y-55545063D01*
X68090000Y-53795063D01*
X68590000Y-53795063D01*
X69590000Y-53795063D01*
X69590000Y-52997235D01*
X69589999Y-52997218D01*
X69583598Y-52937690D01*
X69583596Y-52937683D01*
X69533354Y-52802976D01*
X69533350Y-52802969D01*
X69447190Y-52687875D01*
X69447187Y-52687872D01*
X69332093Y-52601712D01*
X69332086Y-52601708D01*
X69197379Y-52551466D01*
X69197372Y-52551464D01*
X69137844Y-52545063D01*
X68590000Y-52545063D01*
X68590000Y-53795063D01*
X68090000Y-53795063D01*
X68090000Y-52545063D01*
X67542155Y-52545063D01*
X67482627Y-52551464D01*
X67482620Y-52551466D01*
X67347913Y-52601708D01*
X67347910Y-52601710D01*
X67264727Y-52663981D01*
X67199262Y-52688398D01*
X67130989Y-52673546D01*
X67116106Y-52663981D01*
X67032331Y-52601267D01*
X67032328Y-52601265D01*
X66897482Y-52550971D01*
X66897483Y-52550971D01*
X66837883Y-52544564D01*
X66837881Y-52544563D01*
X66837873Y-52544563D01*
X66837864Y-52544563D01*
X65242129Y-52544563D01*
X65242123Y-52544564D01*
X65182516Y-52550971D01*
X65047671Y-52601265D01*
X65047669Y-52601266D01*
X64964311Y-52663669D01*
X64898847Y-52688086D01*
X64830574Y-52673235D01*
X64815689Y-52663669D01*
X64798363Y-52650699D01*
X64755803Y-52618838D01*
X64732330Y-52601266D01*
X64631168Y-52563535D01*
X64575235Y-52521663D01*
X64550818Y-52456199D01*
X64565670Y-52387926D01*
X64586818Y-52359675D01*
X65177320Y-51769172D01*
X65238641Y-51735689D01*
X65308332Y-51740673D01*
X65352677Y-51769172D01*
X65607049Y-52023543D01*
X65711584Y-52128078D01*
X65711587Y-52128080D01*
X65711588Y-52128081D01*
X65834494Y-52210204D01*
X65834496Y-52210205D01*
X65834505Y-52210211D01*
X65855828Y-52219043D01*
X65855829Y-52219044D01*
X65855830Y-52219044D01*
X65971088Y-52266786D01*
X66087241Y-52289890D01*
X66106468Y-52293714D01*
X66116081Y-52295627D01*
X66116082Y-52295627D01*
X67908793Y-52295627D01*
X68006335Y-52276223D01*
X68053786Y-52266785D01*
X68190368Y-52210211D01*
X68256587Y-52165965D01*
X68313289Y-52128079D01*
X68854549Y-51586819D01*
X68915872Y-51553334D01*
X68942230Y-51550500D01*
X70329025Y-51550500D01*
X70396064Y-51570185D01*
X70441819Y-51622989D01*
X70453025Y-51674500D01*
X70453025Y-52547901D01*
X70453026Y-52547919D01*
X70463525Y-52650696D01*
X70463526Y-52650699D01*
X70513906Y-52802734D01*
X70518711Y-52817234D01*
X70610813Y-52966556D01*
X70734869Y-53090612D01*
X70884191Y-53182714D01*
X71050728Y-53237899D01*
X71153516Y-53248400D01*
X73103533Y-53248399D01*
X73206322Y-53237899D01*
X73372859Y-53182714D01*
X73522181Y-53090612D01*
X73646237Y-52966556D01*
X73738339Y-52817234D01*
X73793524Y-52650697D01*
X73804025Y-52547909D01*
X73804024Y-51622892D01*
X73803750Y-51620214D01*
X73793524Y-51520103D01*
X73793523Y-51520100D01*
X73738339Y-51353566D01*
X73646237Y-51204244D01*
X73522181Y-51080188D01*
X73372859Y-50988086D01*
X73206322Y-50932901D01*
X73206320Y-50932900D01*
X73103541Y-50922400D01*
X73103534Y-50922400D01*
X72078255Y-50922400D01*
X72011216Y-50902715D01*
X71990574Y-50886081D01*
X71783204Y-50678711D01*
X97209500Y-50678711D01*
X97209500Y-50921288D01*
X97241161Y-51161785D01*
X97303947Y-51396104D01*
X97367900Y-51550500D01*
X97396776Y-51620212D01*
X97518064Y-51830289D01*
X97518066Y-51830292D01*
X97518067Y-51830293D01*
X97665733Y-52022736D01*
X97665739Y-52022743D01*
X97837256Y-52194260D01*
X97837263Y-52194266D01*
X97931769Y-52266783D01*
X98029711Y-52341936D01*
X98239788Y-52463224D01*
X98380873Y-52521663D01*
X98452823Y-52551466D01*
X98463900Y-52556054D01*
X98698211Y-52618838D01*
X98878586Y-52642584D01*
X98938711Y-52650500D01*
X98938712Y-52650500D01*
X99181289Y-52650500D01*
X99229388Y-52644167D01*
X99421789Y-52618838D01*
X99656100Y-52556054D01*
X99880212Y-52463224D01*
X100090289Y-52341936D01*
X100282738Y-52194265D01*
X100454265Y-52022738D01*
X100601936Y-51830289D01*
X100723224Y-51620212D01*
X100816054Y-51396100D01*
X100878838Y-51161789D01*
X100910500Y-50921288D01*
X100910500Y-50678712D01*
X100878838Y-50438211D01*
X100816054Y-50203900D01*
X100723224Y-49979788D01*
X100601936Y-49769711D01*
X100454265Y-49577262D01*
X100454260Y-49577256D01*
X100282743Y-49405739D01*
X100282736Y-49405733D01*
X100090293Y-49258067D01*
X100090292Y-49258066D01*
X100090289Y-49258064D01*
X99880212Y-49136776D01*
X99880205Y-49136773D01*
X99656104Y-49043947D01*
X99421785Y-48981161D01*
X99181289Y-48949500D01*
X99181288Y-48949500D01*
X98938712Y-48949500D01*
X98938711Y-48949500D01*
X98698214Y-48981161D01*
X98463895Y-49043947D01*
X98239794Y-49136773D01*
X98239785Y-49136777D01*
X98029706Y-49258067D01*
X97837263Y-49405733D01*
X97837256Y-49405739D01*
X97665739Y-49577256D01*
X97665733Y-49577263D01*
X97518067Y-49769706D01*
X97396777Y-49979785D01*
X97396773Y-49979794D01*
X97303947Y-50203895D01*
X97241161Y-50438214D01*
X97209500Y-50678711D01*
X71783204Y-50678711D01*
X71321546Y-50217052D01*
X71321545Y-50217051D01*
X71301855Y-50203895D01*
X71208789Y-50141711D01*
X71208788Y-50141710D01*
X71208787Y-50141709D01*
X71198624Y-50134918D01*
X71198615Y-50134913D01*
X71062042Y-50078343D01*
X71062032Y-50078340D01*
X70917045Y-50049500D01*
X70917043Y-50049500D01*
X68506082Y-50049500D01*
X68506076Y-50049500D01*
X68477242Y-50055234D01*
X68477243Y-50055235D01*
X68361093Y-50078339D01*
X68361083Y-50078342D01*
X68281081Y-50111479D01*
X68281082Y-50111480D01*
X68224507Y-50134914D01*
X68224501Y-50134918D01*
X68214337Y-50141710D01*
X68214336Y-50141711D01*
X68101584Y-50217048D01*
X67971005Y-50347627D01*
X67909682Y-50381111D01*
X67839990Y-50376127D01*
X67784057Y-50334255D01*
X67759966Y-50272546D01*
X67754855Y-50222519D01*
X67701547Y-50061645D01*
X67701542Y-50061634D01*
X67612575Y-49917398D01*
X67612572Y-49917394D01*
X67492732Y-49797554D01*
X67492728Y-49797551D01*
X67348492Y-49708584D01*
X67348481Y-49708579D01*
X67187606Y-49655271D01*
X67088322Y-49645127D01*
X67065000Y-49645127D01*
X67065000Y-50670627D01*
X67045315Y-50737666D01*
X66992511Y-50783421D01*
X66941000Y-50794627D01*
X66689000Y-50794627D01*
X66621961Y-50774942D01*
X66576206Y-50722138D01*
X66565000Y-50670627D01*
X66565000Y-49645126D01*
X66541693Y-49645127D01*
X66541674Y-49645128D01*
X66442392Y-49655271D01*
X66281518Y-49708579D01*
X66281507Y-49708584D01*
X66137271Y-49797551D01*
X66137265Y-49797555D01*
X66128031Y-49806790D01*
X66066707Y-49840273D01*
X65997015Y-49835286D01*
X65952672Y-49806787D01*
X65943044Y-49797159D01*
X65943040Y-49797156D01*
X65798705Y-49708128D01*
X65798699Y-49708125D01*
X65798697Y-49708124D01*
X65798694Y-49708123D01*
X65637709Y-49654778D01*
X65538346Y-49644627D01*
X64991662Y-49644627D01*
X64991644Y-49644628D01*
X64892292Y-49654777D01*
X64892289Y-49654778D01*
X64731305Y-49708123D01*
X64731294Y-49708128D01*
X64586959Y-49797156D01*
X64586955Y-49797159D01*
X64467032Y-49917082D01*
X64467029Y-49917086D01*
X64378001Y-50061421D01*
X64377996Y-50061432D01*
X64324651Y-50222417D01*
X64314500Y-50321774D01*
X64314500Y-50457896D01*
X64294815Y-50524935D01*
X64278181Y-50545577D01*
X63157050Y-51666707D01*
X63157044Y-51666715D01*
X63107812Y-51740395D01*
X63107813Y-51740396D01*
X63074921Y-51789623D01*
X63074914Y-51789635D01*
X63018342Y-51926213D01*
X63018340Y-51926219D01*
X62989500Y-52071206D01*
X62989500Y-52428086D01*
X62969815Y-52495125D01*
X62917011Y-52540880D01*
X62889865Y-52548329D01*
X62890068Y-52549187D01*
X62882520Y-52550970D01*
X62747671Y-52601265D01*
X62747664Y-52601269D01*
X62632455Y-52687515D01*
X62632452Y-52687518D01*
X62546206Y-52802727D01*
X62546202Y-52802734D01*
X62495908Y-52937580D01*
X62489501Y-52997179D01*
X62489500Y-52997198D01*
X62489500Y-53170563D01*
X62469815Y-53237602D01*
X62417011Y-53283357D01*
X62365500Y-53294563D01*
X59050615Y-53294563D01*
X58983576Y-53274878D01*
X58937821Y-53222074D01*
X58926615Y-53170563D01*
X58926615Y-53119877D01*
X58921980Y-53090612D01*
X58893361Y-52909921D01*
X58827672Y-52707752D01*
X58731166Y-52518348D01*
X58731164Y-52518345D01*
X58731163Y-52518343D01*
X58606224Y-52346377D01*
X58455901Y-52196054D01*
X58283935Y-52071115D01*
X58094529Y-51974608D01*
X58094528Y-51974607D01*
X58094527Y-51974607D01*
X57892358Y-51908918D01*
X57892356Y-51908917D01*
X57892355Y-51908917D01*
X57731072Y-51883372D01*
X57682402Y-51875664D01*
X57169828Y-51875664D01*
X57121157Y-51883372D01*
X56959875Y-51908917D01*
X56757700Y-51974608D01*
X56568294Y-52071115D01*
X56396328Y-52196054D01*
X56246005Y-52346377D01*
X56121066Y-52518343D01*
X56024559Y-52707749D01*
X55958868Y-52909924D01*
X55939376Y-53032993D01*
X55925615Y-53119877D01*
X48260000Y-53119877D01*
X48260000Y-50678711D01*
X48949500Y-50678711D01*
X48949500Y-50921288D01*
X48981161Y-51161785D01*
X49043947Y-51396104D01*
X49107900Y-51550500D01*
X49136776Y-51620212D01*
X49258064Y-51830289D01*
X49258066Y-51830292D01*
X49258067Y-51830293D01*
X49405733Y-52022736D01*
X49405739Y-52022743D01*
X49577256Y-52194260D01*
X49577263Y-52194266D01*
X49671769Y-52266783D01*
X49769711Y-52341936D01*
X49979788Y-52463224D01*
X50120873Y-52521663D01*
X50192823Y-52551466D01*
X50203900Y-52556054D01*
X50438211Y-52618838D01*
X50618586Y-52642584D01*
X50678711Y-52650500D01*
X50678712Y-52650500D01*
X50921289Y-52650500D01*
X50969388Y-52644167D01*
X51161789Y-52618838D01*
X51396100Y-52556054D01*
X51620212Y-52463224D01*
X51830289Y-52341936D01*
X52022738Y-52194265D01*
X52194265Y-52022738D01*
X52341936Y-51830289D01*
X52463224Y-51620212D01*
X52556054Y-51396100D01*
X52618838Y-51161789D01*
X52650500Y-50921288D01*
X52650500Y-50678712D01*
X52618838Y-50438211D01*
X52556054Y-50203900D01*
X52463224Y-49979788D01*
X52341936Y-49769711D01*
X52194265Y-49577262D01*
X52194260Y-49577256D01*
X52022743Y-49405739D01*
X52022736Y-49405733D01*
X51830293Y-49258067D01*
X51830292Y-49258066D01*
X51830289Y-49258064D01*
X51620212Y-49136776D01*
X51620205Y-49136773D01*
X51396104Y-49043947D01*
X51161785Y-48981161D01*
X50921289Y-48949500D01*
X50921288Y-48949500D01*
X50678712Y-48949500D01*
X50678711Y-48949500D01*
X50438214Y-48981161D01*
X50203895Y-49043947D01*
X49979794Y-49136773D01*
X49979785Y-49136777D01*
X49769706Y-49258067D01*
X49577263Y-49405733D01*
X49577256Y-49405739D01*
X49405739Y-49577256D01*
X49405733Y-49577263D01*
X49258067Y-49769706D01*
X49136777Y-49979785D01*
X49136773Y-49979794D01*
X49043947Y-50203895D01*
X48981161Y-50438214D01*
X48949500Y-50678711D01*
X48260000Y-50678711D01*
X48260000Y-48384000D01*
X48279685Y-48316961D01*
X48332489Y-48271206D01*
X48384000Y-48260000D01*
X101476000Y-48260000D01*
X101543039Y-48279685D01*
G37*
%TD.AperFunction*%
%TD*%
M02*
